<svg fill="none" xmlns="http://www.w3.org/2000/svg" viewBox="0 0 31 31" class="design-iconfont">
  <g clip-path="url(#wck61pto8__clip0_88_60)">
    <path d="M16.2021 0.860352C17.7521 0.860352 19.0205 2.1166 19.0205 3.64844V26.3496H20.4316V7.83203H26.0684C27.6184 7.83203 28.8867 9.08828 28.8867 10.6201V26.3496H30.2949C30.7186 26.3497 31 26.6312 31 27.0488V28.4443C30.9999 28.8649 30.7185 29.1434 30.2949 29.1436H0.705078C0.278488 29.1434 0.00013049 28.8619 0 28.4443V27.0488C0 26.6281 0.281413 26.3497 0.705078 26.3496H2.11328V3.64844C2.11328 2.1166 3.38164 0.860352 4.93164 0.860352H16.2021ZM5.63672 18.9814C5.21309 18.9816 4.93168 19.263 4.93164 19.6807V21.0762C4.93164 21.4969 5.21305 21.7753 5.63672 21.7754H8.45508C8.87891 21.7754 9.16113 21.4939 9.16113 21.0762V19.6807C9.16109 19.2599 8.87887 18.9814 8.45508 18.9814H5.63672ZM12.6816 18.9814C12.2578 18.9814 11.9766 19.2629 11.9766 19.6807V21.0762C11.9766 21.497 12.2578 21.7754 12.6816 21.7754H15.5C15.9238 21.7754 16.2051 21.4939 16.2051 21.0762V19.6807C16.205 19.2599 15.9238 18.9814 15.5 18.9814H12.6816ZM23.6621 18.9814C23.3624 18.9814 23.1621 19.2629 23.1621 19.6807V21.0762C23.1621 21.497 23.3624 21.7754 23.6621 21.7754H25.6572C25.9567 21.7751 26.1562 21.4938 26.1562 21.0762V19.6807C26.1562 19.2601 25.9567 18.9817 25.6572 18.9814H23.6621ZM5.63672 13.4053C5.21305 13.4054 4.93164 13.6868 4.93164 14.1045V15.5C4.93164 15.9207 5.21305 16.1991 5.63672 16.1992H8.45508C8.87891 16.1992 9.16113 15.9178 9.16113 15.5V14.1045C9.16113 13.6837 8.87891 13.4053 8.45508 13.4053H5.63672ZM12.6816 13.4053C12.2578 13.4053 11.9766 13.6867 11.9766 14.1045V15.5C11.9766 15.9208 12.2578 16.1992 12.6816 16.1992H15.5C15.9238 16.1992 16.2051 15.9178 16.2051 15.5V14.1045C16.2051 13.6837 15.9238 13.4053 15.5 13.4053H12.6816ZM23.6621 13.4053C23.3624 13.4053 23.1621 13.6867 23.1621 14.1045V15.5C23.1621 15.9208 23.3624 16.1992 23.6621 16.1992H25.6572C25.9567 16.199 26.1562 15.9176 26.1562 15.5V14.1045C26.1562 13.6839 25.9567 13.4055 25.6572 13.4053H23.6621ZM5.63672 7.8252C5.21305 7.82533 4.93164 8.10771 4.93164 8.52539V9.9209C4.93177 10.3414 5.21315 10.62 5.63672 10.6201H8.45508C8.87881 10.6201 9.161 10.3385 9.16113 9.9209V8.52539C9.16113 8.10459 8.87891 7.8252 8.45508 7.8252H5.63672ZM12.6816 7.8252C12.2578 7.8252 11.9766 8.10762 11.9766 8.52539V9.9209C11.9767 10.3415 12.2579 10.6201 12.6816 10.6201H15.5C15.9237 10.6201 16.2049 10.3385 16.2051 9.9209V8.52539C16.2051 8.10459 15.9238 7.8252 15.5 7.8252H12.6816Z" fill="url(#wck61pto8__paint0_linear_88_60)"/>
  </g>
  <defs>
    <linearGradient id="wck61pto8__paint0_linear_88_60" x1="15.5" y1=".860352" x2="15.5" y2="29.1436" gradientUnits="userSpaceOnUse">
      <stop stop-color="#D1F7E2"/>
      <stop offset="1" stop-color="#F6FFFD"/>
    </linearGradient>
    <clipPath id="wck61pto8__clip0_88_60">
      <path fill="#fff" d="M0 0H31V31H0z"/>
    </clipPath>
  </defs>
</svg>
