<svg xmlns="http://www.w3.org/2000/svg" fill="none" viewBox="0 0 38.55029297 37.50003052" class="design-iconfont">
  <path d="M19.2547 0C21.9152 0 24.4181 0.493595 26.7632 1.48079C29.1083 2.46798 31.1517 3.8087 32.8934 5.50294C34.6351 7.19716 36.0134 9.1849 37.0282 11.4661C38.0431 13.7473 38.5505 16.182 38.5505 18.77C38.5505 21.3581 38.0431 23.7927 37.0282 26.0739C36.0134 28.3551 34.6351 30.3429 32.8934 32.0371C31.1517 33.7313 29.1083 35.0654 26.7632 36.0392C24.4181 37.0131 21.9152 37.5 19.2547 37.5C16.8959 37.5 14.6673 37.1131 12.569 36.3394C10.4708 35.5657 8.57134 34.4984 6.8708 33.1377L11.561 23.4125C12.137 24.3197 12.6719 25.1601 13.1656 25.9338C13.577 26.6009 13.9884 27.2345 14.3999 27.8349C14.8113 28.4352 15.0993 28.8421 15.2639 29.0555C15.5656 29.429 15.8467 29.7759 16.1073 30.0961C16.3678 30.4162 16.7313 30.603 17.1976 30.6564C17.7736 30.7364 18.185 30.6363 18.4318 30.3562C18.6787 30.076 18.953 29.7092 19.2547 29.2556C19.337 29.1489 19.4947 28.8687 19.7278 28.4152C19.961 27.9616 20.2421 27.4013 20.5712 26.7343C20.9004 26.0672 21.2707 25.3268 21.6821 24.5131C22.0935 23.6993 22.5049 22.8655 22.9164 22.0117C23.8763 20.0374 24.9461 17.8362 26.1255 15.4082L30.4866 17.6894L28.7175 5.32284L17.5267 12.0064L22.4227 13.6473L17.2387 24.0128C16.4433 22.7588 15.7576 21.6649 15.1816 20.7311C14.9347 20.3308 14.6947 19.9506 14.4616 19.5905C14.2284 19.2303 14.0296 18.9168 13.865 18.65L13.4947 18.0496C13.6045 18.2631 13.6113 18.2964 13.5153 18.1497C13.4193 18.0029 13.2616 17.7962 13.0422 17.5294C12.8228 17.2625 12.5759 16.9957 12.3016 16.7289C12.0273 16.4621 11.7668 16.3287 11.5199 16.3287C10.8891 16.3287 10.4365 16.4821 10.1622 16.789C9.8879 17.0958 9.66849 17.4493 9.50391 17.8495C9.44907 17.9563 9.3119 18.2431 9.09249 18.71C8.87308 19.1769 8.58508 19.7572 8.2285 20.4509C7.87192 21.1446 7.48793 21.9184 7.07651 22.7722L5.75995 25.2535C5.34852 26.1073 4.9508 26.921 4.56682 27.6948C4.18283 28.4685 3.85368 29.1222 3.5794 29.6558C2.42741 28.1083 1.54284 26.4141 0.925706 24.5731C0.308569 22.7321 0 20.7978 0 18.77C0 16.182 0.500568 13.7473 1.5017 11.4661C2.50283 9.1849 3.87425 7.19716 5.61595 5.50294C7.35764 3.8087 9.40106 2.46798 11.7462 1.48079C14.0913 0.493595 16.5941 0 19.2547 0Z" fill="#E9FDF2"/>
</svg>
