<svg xmlns="http://www.w3.org/2000/svg" fill="none" viewBox="0 0 38.55029297 32.49996948" class="design-iconfont">
  <path d="M14.3829 0L9.49047 32.5L1.63004 32.5C1.60055 32.5 1.57109 32.4993 1.54167 32.498C1.51221 32.4967 1.48284 32.4947 1.45355 32.492C1.42424 32.4893 1.39503 32.486 1.36595 32.482C1.33687 32.478 1.30792 32.4734 1.27911 32.4681C1.25033 32.4628 1.22174 32.4569 1.19334 32.4504C1.16494 32.4438 1.13677 32.4366 1.10884 32.4288C1.08092 32.4209 1.05326 32.4125 1.02588 32.4034C0.998496 32.3943 0.971435 32.3846 0.944695 32.3743C0.917955 32.364 0.891557 32.3531 0.865499 32.3416C0.839473 32.3302 0.813839 32.3181 0.788597 32.3055C0.763356 32.2928 0.738537 32.2796 0.714141 32.2659C0.689781 32.2521 0.665864 32.2378 0.642386 32.2229C0.618943 32.2081 0.595995 32.1928 0.573536 32.1769C0.551112 32.161 0.529214 32.1446 0.507845 32.1278C0.486441 32.1109 0.465614 32.0936 0.445366 32.0758C0.425117 32.058 0.405479 32.0398 0.386453 32.0211C0.367393 32.0024 0.348944 31.9833 0.331108 31.9638C0.313305 31.9443 0.296148 31.9244 0.279635 31.9041C0.263124 31.8838 0.247291 31.8632 0.232139 31.8422C0.216986 31.8212 0.202529 31.7999 0.18877 31.7783C0.174976 31.7566 0.161912 31.7346 0.14958 31.7124C0.137247 31.6902 0.125661 31.6677 0.114823 31.6449C0.103951 31.6222 0.0938264 31.5992 0.0844498 31.576C0.0750727 31.5528 0.0664769 31.5294 0.0586623 31.5057C0.0508147 31.4822 0.0437476 31.4584 0.0374621 31.4345C0.0311773 31.4106 0.0256733 31.3865 0.0209507 31.3624C0.0162617 31.3382 0.0123549 31.3139 0.00922883 31.2896C0.00606937 31.2652 0.0037256 31.2408 0.00219601 31.2164C0.0006672 31.192 -6.29875e-05 31.1675 4.66575e-06 31.143C7.30969e-05 31.1185 0.000922261 31.0941 0.00255294 31.0696C0.00421784 31.0452 0.00668137 31.0208 0.00994271 30.9965C0.0132041 30.9722 0.0172469 30.9479 0.0220713 30.9237L6.0022 1.13208C6.00612 1.11253 6.01056 1.09305 6.0155 1.07364C6.02044 1.05423 6.0259 1.03493 6.03186 1.01575C6.03782 0.996539 6.04429 0.977454 6.05128 0.958496C6.05826 0.939538 6.06575 0.920706 6.0737 0.902002C6.0817 0.883297 6.09016 0.864762 6.09913 0.846396C6.10805 0.828001 6.11748 0.809792 6.12741 0.791764C6.13735 0.773707 6.14775 0.755849 6.1586 0.73819C6.16946 0.720531 6.18077 0.703079 6.19254 0.685843C6.20431 0.668607 6.2166 0.651578 6.22929 0.634766C6.24198 0.617978 6.25507 0.601419 6.26863 0.585084C6.28224 0.56878 6.2962 0.552711 6.31062 0.536885C6.32505 0.521087 6.33982 0.50554 6.35506 0.490251C6.3703 0.474987 6.38595 0.460006 6.402 0.445309C6.418 0.430612 6.43441 0.416209 6.45123 0.402103C6.46799 0.387997 6.48517 0.374215 6.50265 0.360758C6.52018 0.347273 6.53807 0.334113 6.55626 0.321276C6.57445 0.308468 6.59301 0.295984 6.61191 0.283825C6.63077 0.271694 6.64993 0.259901 6.66945 0.248447C6.68897 0.236993 6.70874 0.225906 6.72887 0.215186C6.74895 0.204465 6.76928 0.194112 6.78992 0.184124C6.81056 0.174138 6.83146 0.164531 6.85261 0.155306C6.87376 0.146081 6.89511 0.13725 6.91672 0.128816C6.93833 0.12038 6.96014 0.112339 6.98221 0.104694C7.00422 0.0970484 7.02644 0.0898121 7.04886 0.082985C7.07129 0.0761295 7.09386 0.0696973 7.11664 0.0636881C7.13942 0.0576794 7.16231 0.0520931 7.18534 0.0469299C7.20843 0.0417391 7.23162 0.0369854 7.2549 0.0326694C7.27819 0.0283244 7.30164 0.0244171 7.32513 0.020947C7.34862 0.017477 7.37222 0.0144305 7.39592 0.0118069C7.41956 0.00921117 7.44331 0.00703896 7.46711 0.00528971C7.49091 0.00354046 7.51471 0.00222901 7.53856 0.00135407C7.56241 0.000451356 7.58626 0 7.61016 0L14.3829 0ZM30.9403 0C30.9642 0 30.9881 0.000451356 31.0119 0.00135407C31.0358 0.00222901 31.0596 0.00354046 31.0834 0.00528971C31.1072 0.00703896 31.1309 0.00921117 31.1546 0.0118069C31.1783 0.0144305 31.2019 0.017477 31.2254 0.020947C31.2489 0.0244171 31.2723 0.0283244 31.2956 0.0326694C31.3189 0.0369854 31.3421 0.0417391 31.3652 0.0469299C31.3882 0.0520931 31.4111 0.0576794 31.4339 0.0636881C31.4566 0.0696973 31.4792 0.0761295 31.5016 0.082985C31.5241 0.0898121 31.5463 0.0970484 31.5683 0.104694C31.5904 0.112339 31.6122 0.12038 31.6338 0.128816C31.6554 0.13725 31.6767 0.146081 31.6979 0.155306C31.719 0.164531 31.7399 0.174138 31.7606 0.184124C31.7812 0.194112 31.8016 0.204465 31.8216 0.215186C31.8418 0.225906 31.8615 0.236993 31.8811 0.248447C31.9005 0.259901 31.9197 0.271694 31.9386 0.283825C31.9575 0.295984 31.976 0.308468 31.9942 0.321276C32.0124 0.334113 32.0303 0.347273 32.0479 0.360758C32.0653 0.374215 32.0825 0.387997 32.0993 0.402103C32.1161 0.416209 32.1325 0.430612 32.1485 0.445309C32.1646 0.460006 32.1802 0.474987 32.1954 0.490251C32.2107 0.50554 32.2255 0.521087 32.2399 0.536885C32.2543 0.552711 32.2683 0.56878 32.2819 0.585084C32.2954 0.601419 32.3085 0.617978 32.3212 0.634766C32.3339 0.651578 32.3462 0.668607 32.358 0.685843C32.3697 0.703079 32.3811 0.720531 32.3919 0.73819C32.4028 0.755849 32.4132 0.773707 32.4231 0.791764C32.433 0.809792 32.4425 0.828001 32.4514 0.846396C32.4603 0.864762 32.4688 0.883297 32.4768 0.902002C32.4848 0.920706 32.4922 0.939538 32.4992 0.958496C32.5062 0.977454 32.5127 0.996539 32.5186 1.01575C32.5246 1.03493 32.5301 1.05423 32.535 1.07364C32.54 1.09305 32.5444 1.11253 32.5483 1.13208L38.5284 30.9237C38.5333 30.9479 38.5373 30.9722 38.5406 30.9965C38.5438 31.0208 38.5463 31.0452 38.548 31.0696C38.5496 31.0941 38.5505 31.1185 38.5505 31.143C38.5506 31.1675 38.5498 31.192 38.5483 31.2164C38.5468 31.2408 38.5444 31.2652 38.5413 31.2896C38.5382 31.3139 38.5343 31.3382 38.5296 31.3624C38.5248 31.3865 38.5193 31.4106 38.5131 31.4345C38.5068 31.4584 38.4997 31.4822 38.4918 31.5057C38.4841 31.5294 38.4754 31.5528 38.4661 31.576C38.4567 31.5992 38.4466 31.6222 38.4357 31.6449C38.4249 31.6677 38.4133 31.6902 38.4009 31.7124C38.3886 31.7346 38.3756 31.7566 38.3617 31.7783C38.348 31.7999 38.3335 31.8212 38.3184 31.8422C38.3032 31.8632 38.2874 31.8838 38.2709 31.9041C38.2544 31.9244 38.2372 31.9443 38.2194 31.9638C38.2016 31.9833 38.1831 32.0024 38.1641 32.0211C38.145 32.0398 38.1254 32.058 38.1051 32.0758C38.0849 32.0936 38.0641 32.1109 38.0427 32.1278C38.0213 32.1446 37.9994 32.161 37.977 32.1769C37.9545 32.1928 37.9316 32.2081 37.9081 32.2229C37.8847 32.2378 37.8608 32.2521 37.8364 32.2659C37.812 32.2796 37.7871 32.2928 37.7619 32.3055C37.7367 32.3181 37.7111 32.3302 37.685 32.3416C37.659 32.3531 37.6326 32.364 37.6058 32.3743C37.5791 32.3846 37.552 32.3943 37.5246 32.4034C37.4973 32.4125 37.4696 32.4209 37.4417 32.4288C37.4137 32.4366 37.3856 32.4438 37.3572 32.4504C37.3288 32.4569 37.3002 32.4628 37.2714 32.4681C37.2426 32.4734 37.2137 32.478 37.1846 32.482C37.1555 32.486 37.1263 32.4893 37.097 32.492C37.0677 32.4946 37.0383 32.4967 37.0088 32.498C36.9794 32.4993 36.95 32.5 36.9205 32.5L29.06 32.5L24.1676 0L30.9403 0ZM21.7214 23.0208L22.5368 32.5L16.0137 32.5L16.8291 23.0208L21.7214 23.0208ZM20.906 12.1875L21.7214 20.3125L16.8291 20.3125L17.6445 12.1875L20.906 12.1875ZM20.0907 1.35417L20.906 9.47916L17.6445 9.47916L18.4599 1.35417L20.0907 1.35417Z" fill="#E9FDF2"/>
</svg>
