<svg xmlns="http://www.w3.org/2000/svg" fill="none" viewBox="0 0 37.30712891 37.5" class="design-iconfont">
  <path d="M27.0848 27.225C26.1749 31.6006 24.5622 35.1046 22.5458 37.0875C29.7233 35.529 35.3461 29.8844 36.8966 22.6625C34.9239 24.6893 31.4452 26.3031 27.0848 27.225ZM27.3709 11.775C27.4163 12.0629 27.4554 12.3613 27.4952 12.65C27.535 12.9387 27.573 13.2231 27.6071 13.5125C27.6413 13.8019 27.6782 14.0975 27.7066 14.3875C27.7351 14.6775 27.7585 14.9595 27.7812 15.25C27.804 15.5406 27.8263 15.834 27.8434 16.125C27.8605 16.416 27.8807 16.7088 27.8807 17C27.8807 17.2913 27.9056 17.5836 27.9056 17.875C27.9056 18.1664 27.918 18.4585 27.918 18.75C27.918 19.0415 27.9056 19.3336 27.9056 19.625C27.9056 19.9164 27.8807 20.2088 27.8807 20.5C27.8807 20.7912 27.8605 21.0715 27.8434 21.3625C27.8263 21.6535 27.804 21.947 27.7812 22.2375C27.7585 22.5281 27.7351 22.8225 27.7066 23.1125C27.6782 23.4025 27.6413 23.6856 27.6071 23.975C27.573 24.2644 27.535 24.5613 27.4952 24.85C27.4554 25.1387 27.4163 25.4246 27.3709 25.7125C33.2235 24.3588 37.3069 21.7207 37.3069 18.75C37.3069 15.7793 33.2235 13.136 27.3709 11.775ZM22.5458 0.4125C24.5768 2.39542 26.1677 5.8994 27.0848 10.275C31.4452 11.1897 34.9239 12.8107 36.8966 14.8375C35.3461 7.61557 29.7233 1.97098 22.5458 0.4125ZM11.7144 9.9875C12.0008 9.94187 12.2977 9.90249 12.5849 9.8625C12.8721 9.82255 13.155 9.78428 13.4429 9.75C13.7309 9.71569 14.0249 9.6786 14.3134 9.65C14.602 9.6214 14.8824 9.59789 15.1715 9.575C15.4605 9.55211 15.7525 9.52968 16.042 9.5125C16.3314 9.49533 16.6228 9.475 16.9125 9.475C17.2022 9.475 17.4931 9.45 17.783 9.45C18.0729 9.45 18.3635 9.4375 18.6535 9.4375C18.9434 9.4375 19.2341 9.45 19.524 9.45C19.8139 9.45 20.1047 9.475 20.3945 9.475C20.6842 9.475 20.9631 9.49533 21.2525 9.5125C21.542 9.52968 21.834 9.55211 22.123 9.575C22.4121 9.59789 22.705 9.6214 22.9935 9.65C23.2821 9.6786 23.5636 9.71569 23.8516 9.75C24.1395 9.78428 24.4349 9.82255 24.7221 9.8625C25.0093 9.90249 25.2937 9.94187 25.5801 9.9875C24.2334 4.09722 21.6089 0 18.6535 0C15.698 0 13.0611 4.09722 11.7144 9.9875ZM10.2221 10.2875C11.132 5.91187 12.752 2.42046 14.7611 0.4375C7.58364 1.98877 1.96812 7.61768 0.410376 14.825C2.38309 12.8055 5.85446 11.1875 10.2221 10.2875ZM10.2221 27.225C5.86174 26.3031 2.39038 24.6893 0.410376 22.6625C1.96087 29.8771 7.57636 35.529 14.7611 37.0875C12.7448 35.0973 11.132 31.6006 10.2221 27.225ZM11.4159 11.475C10.5642 16.2823 10.5642 21.2177 11.4159 26.025C16.1985 26.8811 21.1084 26.8811 25.891 26.025C26.3205 23.625 26.5377 21.1866 26.5377 18.75C26.5377 16.3134 26.3205 13.875 25.891 11.475C21.1012 10.6043 16.1985 10.6043 11.4159 11.475ZM9.93608 25.7125C9.89021 25.4247 9.85191 25.1387 9.81173 24.85C9.77158 24.5614 9.73427 24.2644 9.69981 23.975C9.66538 23.6856 9.62907 23.4025 9.60032 23.1125C9.57158 22.8225 9.5487 22.5281 9.52571 22.2375C9.50272 21.9469 9.4808 21.6535 9.46353 21.3625C9.44626 21.0715 9.41379 20.7913 9.41379 20.5C9.41379 20.2088 9.38892 19.9164 9.38892 19.625C9.38892 19.3336 9.38892 19.0415 9.38892 18.75C9.38892 18.4585 9.38892 18.1664 9.38892 17.875C9.38892 17.5836 9.41379 17.2913 9.41379 17C9.41379 16.7088 9.44626 16.416 9.46353 16.125C9.4808 15.834 9.50272 15.5406 9.52571 15.25C9.5487 14.9595 9.57158 14.6775 9.60032 14.3875C9.62907 14.0975 9.66538 13.8019 9.69981 13.5125C9.73427 13.2231 9.77158 12.9387 9.81173 12.65C9.85191 12.3614 9.89021 12.0628 9.93608 11.775C4.07612 13.1287 0 15.7866 0 18.75C0 21.7134 4.07612 24.3588 9.93608 25.7125ZM25.5801 27.5125C25.2937 27.5581 25.0093 27.5975 24.7221 27.6375C24.4349 27.6775 24.1395 27.7157 23.8516 27.75C23.5636 27.7843 23.2821 27.8214 22.9935 27.85C22.705 27.8786 22.4121 27.9021 22.123 27.925C21.834 27.9479 21.542 27.9703 21.2525 27.9875C20.9631 28.0047 20.6842 28.025 20.3945 28.025C20.1047 28.025 19.8139 28.05 19.524 28.05C19.2341 28.05 18.9434 28.0625 18.6535 28.0625C18.3635 28.0625 18.0729 28.05 17.783 28.05C17.4931 28.05 17.2022 28.025 16.9125 28.025C16.6228 28.025 16.3314 28.0047 16.042 27.9875C15.7525 27.9703 15.4605 27.9479 15.1715 27.925C14.8824 27.9021 14.602 27.8786 14.3134 27.85C14.0249 27.8214 13.7309 27.7843 13.4429 27.75C13.155 27.7157 12.8721 27.6775 12.5849 27.6375C12.2977 27.5975 12.0008 27.5581 11.7144 27.5125C13.0611 33.3955 15.7053 37.5 18.6535 37.5C21.6016 37.5 24.2334 33.3955 25.5801 27.5125Z" fill="#E9FDF2"/>
</svg>
