<svg xmlns="http://www.w3.org/2000/svg" fill="none" viewBox="0 0 43.52490234 45" class="design-iconfont">
  <path d="M23.7326 4.60785C23.2371 5.12947 22.5375 5.45455 21.7624 5.45455C20.8038 5.45455 19.9609 4.95738 19.4764 4.20621L19.8797 4.9342L17.7134 6.14023L17.053 4.94808L19.2193 3.74205L19.2994 3.88675C19.1343 3.53489 19.0421 3.14189 19.0421 2.72727C19.0421 1.22104 20.26 0 21.7624 0C23.2648 0 24.4827 1.22104 24.4827 2.72727C24.4827 3.09912 24.4084 3.45359 24.274 3.77658L26.3783 4.94816L25.718 6.14029L23.5518 4.93423L23.7326 4.60785ZM13.8036 6.75712L15.9699 5.55109L16.6303 6.74324L14.464 7.94927L13.8036 6.75712ZM27.4614 5.55119L29.6276 6.75726L28.9672 7.94939L26.8011 6.74332L27.4614 5.55119ZM10.5542 8.56616L12.7205 7.36014L13.3808 8.55228L11.2145 9.75831L10.5542 8.56616ZM30.7107 7.36029L32.8768 8.56635L32.2165 9.75847L30.0503 8.55242L30.7107 7.36029ZM7.30478 10.3752L9.47105 9.16918L10.1314 10.3613L7.96509 11.5674L7.30478 10.3752ZM33.9599 9.16938L36.1261 10.3755L35.4658 11.5676L33.2996 10.3615L33.9599 9.16938ZM21.7157 10.5109L34.1136 17.4136L35.4481 16.6203L36.1419 17.7933L35.4906 18.1803L41.2114 21.3655L34.0845 25.6024L36.1261 26.7391L35.4658 27.9312L33.2996 26.7251L33.8415 25.747L21.7122 32.9577L9.59085 25.7491L10.1314 26.725L7.96509 27.931L7.30478 26.7389L9.3451 25.603L2.21923 21.3651L7.93905 18.1807L7.28699 17.7929L7.98091 16.6201L9.31603 17.4142L21.7157 10.5109ZM5.4406 13.6364C5.4406 14.1003 5.32508 14.5371 5.12132 14.9196L6.89796 15.9761L6.20404 17.149L4.1743 15.9417C3.75373 16.209 3.25503 16.3636 2.7203 16.3636C1.21792 16.3636 0 15.1426 0 13.6364C0 12.1301 1.21792 10.9091 2.7203 10.9091C3.51969 10.9091 4.23852 11.2548 4.73623 11.8052L6.22164 10.9782L6.88195 12.1704L5.36912 13.0126C5.41587 13.2129 5.4406 13.4218 5.4406 13.6364ZM40.8045 16.3636C42.3069 16.3636 43.5248 15.1426 43.5248 13.6364C43.5248 12.1301 42.3069 10.9091 40.8045 10.9091C39.9883 10.9091 39.2558 11.2696 38.7573 11.8404L37.2092 10.9785L36.5488 12.1706L38.1451 13.0594C38.1053 13.2454 38.0842 13.4384 38.0842 13.6364C38.0842 14.083 38.1912 14.5046 38.3811 14.8766L36.5314 15.9762L37.2251 17.1492L39.3053 15.9126C39.7351 16.1977 40.2505 16.3636 40.8045 16.3636ZM5.4406 30C5.4406 30.4639 5.32508 30.9007 5.12132 31.2832L6.89796 32.3397L6.20404 33.5126L4.1743 32.3054C3.75373 32.5727 3.25503 32.7273 2.7203 32.7273C1.21792 32.7273 0 31.5063 0 30C0 28.4937 1.21792 27.2727 2.7203 27.2727C3.51969 27.2727 4.23852 27.6184 4.73623 28.1688L6.22164 27.3419L6.88195 28.534L5.36912 29.3763C5.41587 29.5766 5.4406 29.7854 5.4406 30ZM43.5248 30C43.5248 31.5063 42.3069 32.7273 40.8045 32.7273C40.2505 32.7273 39.7351 32.5613 39.3053 32.2762L37.2251 33.5129L36.5314 32.3399L38.3811 31.2402C38.1912 30.8682 38.0842 30.4466 38.0842 30C38.0842 29.802 38.1053 29.6091 38.1451 29.4231L36.5488 28.5342L37.2092 27.3421L38.7573 28.204C39.2558 27.6332 39.9883 27.2727 40.8045 27.2727C42.3069 27.2727 43.5248 28.4937 43.5248 30ZM9.45287 35.4446L7.28699 34.1565L7.98091 32.9838L10.1468 34.2719L9.45287 35.4446ZM36.1419 34.1569L33.9753 35.4449L33.2815 34.272L35.4481 32.9839L36.1419 34.1569ZM12.7017 37.3767L10.5358 36.0887L11.2297 34.9159L13.3956 36.204L12.7017 37.3767ZM32.8919 36.0889L30.7254 37.377L30.0317 36.204L32.1983 34.9161L32.8919 36.0889ZM15.9505 39.3089L13.7847 38.0208L14.4785 36.8481L16.6444 38.136L15.9505 39.3089ZM29.6421 38.0209L27.4756 39.309L26.7817 38.1362L28.9483 36.8481L29.6421 38.0209ZM19.1993 41.241L17.0334 39.9529L17.7274 38.7801L19.8933 40.0682L19.1993 41.241ZM26.3922 39.9531L24.2704 41.2146C24.4071 41.5399 24.4827 41.8975 24.4827 42.2727C24.4827 43.779 23.2648 45 21.7624 45C20.26 45 19.0421 43.779 19.0421 42.2727C19.0421 40.7665 20.26 39.5455 21.7624 39.5455C22.5254 39.5455 23.2152 39.8605 23.7092 40.3679L23.5319 40.0682L25.6985 38.7802L26.3922 39.9531Z" fill-rule="evenodd" fill="#E9FDF2"/>
</svg>
