<svg xmlns="http://www.w3.org/2000/svg" fill="none" viewBox="0 0 74.52246094 62.24023438" class="design-iconfont">
  <path d="M74.5223 33.3985C73.0789 19.2826 67.0702 8.67255 59.8043 8.67255C59.7021 8.68087 59.6001 8.6906 59.4982 8.70184C59.3963 8.71309 59.2946 8.72573 59.1931 8.73989C59.0915 8.75406 58.9903 8.76968 58.8892 8.78676C58.7881 8.80384 58.6873 8.82237 58.5869 8.84237C58.4864 8.86237 58.3861 8.88376 58.2862 8.90668C58.1864 8.92953 58.0868 8.95385 57.9877 8.97956C57.8885 9.00527 57.7897 9.03244 57.6914 9.06106C57.593 9.08963 57.4951 9.1196 57.3975 9.15102C57.3 9.18245 57.2031 9.21521 57.1065 9.24943C57.01 9.28365 56.914 9.31921 56.8185 9.35622C56.723 9.39318 56.6281 9.43153 56.5338 9.47122C56.4394 9.51091 56.3456 9.55194 56.2525 9.59437C56.1593 9.63673 56.0668 9.68049 55.9749 9.72553C55.8831 9.77063 55.7919 9.81701 55.7014 9.86472C55.6109 9.91244 55.5211 9.96143 55.4321 10.0117C55.343 10.062 55.2547 10.1135 55.1671 10.1663C55.0795 10.2191 54.9928 10.2732 54.9069 10.3286C54.8209 10.3839 54.7357 10.4404 54.6514 10.4982C54.5671 10.556 54.4837 10.615 54.4011 10.6751C54.3186 10.7354 54.2369 10.7967 54.1561 10.8592C54.0754 10.9218 53.9955 10.9854 53.9166 11.0503C53.8377 11.1151 53.7598 11.1811 53.6828 11.2482C53.6058 11.3152 53.5298 11.3834 53.4549 11.4527C53.38 11.5219 53.306 11.5923 53.2332 11.6637C53.1603 11.7351 53.0884 11.8075 53.0177 11.881C52.9469 11.9545 52.8772 12.0289 52.8086 12.1044C52.7401 12.1798 52.6726 12.2563 52.6063 12.3337C52.54 12.4111 52.4747 12.4895 52.4107 12.5688C52.3467 12.6481 52.2839 12.7283 52.2222 12.8094C52.1605 12.8906 52.1 12.9725 52.0408 13.0553C51.9815 13.1382 51.9234 13.2219 51.8666 13.3064C51.8098 13.3909 51.7543 13.4763 51.7 13.5624C47.7876 5.07436 42.7573 0 37.2613 0C31.7652 0 26.7815 5.12049 22.8691 13.8392C22.8162 13.75 22.7619 13.6617 22.7064 13.5741C22.6508 13.4865 22.5939 13.3998 22.5358 13.3139C22.4776 13.228 22.4182 13.1431 22.3575 13.0589C22.2968 12.9748 22.2348 12.8915 22.1716 12.8092C22.1084 12.7268 22.0439 12.6454 21.9783 12.565C21.9127 12.4846 21.8459 12.4051 21.7779 12.3266C21.7099 12.2482 21.6407 12.1707 21.5704 12.0943C21.5001 12.0178 21.4287 11.9424 21.3561 11.8681C21.2835 11.7938 21.2098 11.7205 21.135 11.6482C21.0603 11.5761 20.9844 11.505 20.9075 11.435C20.8306 11.3651 20.7527 11.2963 20.6737 11.2286C20.5948 11.1609 20.5149 11.0944 20.4339 11.0291C20.353 10.9637 20.271 10.8996 20.1882 10.8367C20.1053 10.7738 20.0215 10.7121 19.9368 10.6516C19.8521 10.5911 19.7665 10.5319 19.6801 10.4739C19.5936 10.416 19.5063 10.3593 19.4181 10.3039C19.3299 10.2486 19.2409 10.1945 19.1511 10.1416C19.0613 10.0889 18.9707 10.0375 18.8794 9.98732C18.788 9.93718 18.696 9.88843 18.6032 9.84096C18.5104 9.79355 18.4169 9.74754 18.3227 9.70286C18.2286 9.65819 18.1338 9.61485 18.0383 9.57297C17.9429 9.53109 17.8468 9.49061 17.7501 9.45153C17.6534 9.41245 17.5562 9.37476 17.4584 9.33853C17.3606 9.30231 17.2623 9.26754 17.1634 9.23417C17.0645 9.20086 16.9652 9.16901 16.8655 9.13856C16.7656 9.10811 16.6654 9.07918 16.5647 9.0517C16.4641 9.02417 16.363 8.99816 16.2616 8.97366C16.1601 8.94917 16.0584 8.92613 15.9562 8.90461C15.8541 8.8831 15.7517 8.86304 15.6489 8.8445C15.5462 8.82596 15.4432 8.80894 15.34 8.79344C15.2368 8.77794 15.1333 8.76396 15.0296 8.7515C14.926 8.73904 14.8222 8.7281 14.7182 8.71868C7.45223 8.71868 1.3973 19.3287 0 33.4446L74.5223 33.3985ZM59.292 50.9743C59.0535 51.0562 58.8173 51.144 58.5833 51.2378C58.3493 51.3316 58.1179 51.4312 57.889 51.5366C57.6602 51.6419 57.4342 51.7529 57.211 51.8697C56.9878 51.9864 56.7677 52.1086 56.5508 52.2364C56.3338 52.3642 56.1203 52.4973 55.9101 52.6357C55.7 52.7742 55.4935 52.9178 55.2908 53.0667C55.088 53.2155 54.8891 53.3693 54.6941 53.5281C54.4992 53.687 54.3085 53.8505 54.1219 54.0189C54.0252 54.1084 53.926 54.1953 53.8246 54.2798C53.7232 54.3642 53.6197 54.4459 53.514 54.525C53.4083 54.604 53.3006 54.6803 53.191 54.7539C53.0813 54.8274 52.9697 54.898 52.8563 54.9658C52.7429 55.0336 52.6278 55.0984 52.511 55.1603C52.3942 55.2221 52.2758 55.2809 52.156 55.3367C52.036 55.3924 51.9148 55.445 51.7921 55.4945C51.6694 55.544 51.5456 55.5904 51.4205 55.6334C51.3614 55.6554 51.3018 55.6761 51.2417 55.6956C51.1817 55.7151 51.1213 55.7334 51.0606 55.7505C50.9998 55.7675 50.9388 55.7833 50.8773 55.7979C50.8159 55.8126 50.7542 55.8259 50.6923 55.838C50.6303 55.8501 50.5681 55.861 50.5057 55.8707C50.4433 55.8803 50.3807 55.8886 50.318 55.8957C50.2552 55.9028 50.1924 55.9087 50.1294 55.9132C50.0664 55.9178 50.0034 55.9211 49.9402 55.9231C49.8771 55.9251 49.8139 55.9259 49.7508 55.9254C49.6876 55.9248 49.6245 55.9231 49.5614 55.92C49.4983 55.9169 49.4353 55.9126 49.3724 55.907C49.3095 55.9014 49.2467 55.8945 49.1841 55.8864C49.1215 55.8783 49.0591 55.8689 48.9968 55.8583C48.9346 55.8476 48.8726 55.8357 48.8108 55.8226C48.7491 55.8094 48.6877 55.7951 48.6265 55.7794C48.5653 55.7638 48.5045 55.7469 48.4441 55.7289C48.3836 55.7108 48.3236 55.6916 48.2638 55.6711C48.2041 55.6506 48.1449 55.6289 48.0862 55.606C48.0274 55.5831 47.9691 55.5591 47.9113 55.5338C47.8535 55.5086 47.7962 55.4823 47.7395 55.4548C47.6828 55.4272 47.6267 55.3985 47.5712 55.3687C47.5156 55.339 47.4607 55.3081 47.4064 55.2761C47.3521 55.244 47.2986 55.211 47.2457 55.1768C47.1928 55.1426 47.1406 55.1074 47.0891 55.0712C47.0377 55.0349 46.987 54.9976 46.937 54.9593C46.8871 54.921 46.838 54.8817 46.7897 54.8414C46.7414 54.8011 46.6939 54.7598 46.6472 54.7176C46.6007 54.6754 46.5549 54.6323 46.5101 54.5883C46.4652 54.5442 46.4213 54.4993 46.3783 54.4535C46.3352 54.4077 46.2932 54.361 46.2522 54.3135C46.2111 54.266 46.171 54.2177 46.1319 54.1685C46.0928 54.1194 46.0547 54.0695 46.0176 54.0189C45.9265 53.9199 45.8336 53.8226 45.739 53.727C45.6443 53.6314 45.5479 53.5375 45.4498 53.4453C45.3517 53.3531 45.252 53.2627 45.1506 53.1741C45.0492 53.0855 44.9463 52.9987 44.8417 52.9138C44.7372 52.8289 44.6311 52.7459 44.5235 52.6647C44.4159 52.5836 44.3069 52.5045 44.1964 52.4272C44.0859 52.3499 43.9741 52.2748 43.8609 52.2015C43.7477 52.1283 43.6331 52.0571 43.5173 51.988C43.4015 51.9189 43.2844 51.8518 43.1662 51.7869C43.0479 51.722 42.9286 51.6592 42.808 51.5985C42.6874 51.5378 42.5658 51.4794 42.4431 51.4231C42.3204 51.3667 42.1968 51.3126 42.0721 51.2608C41.9475 51.209 41.8219 51.1593 41.6954 51.1119C41.5689 51.0645 41.4416 51.0194 41.3136 50.9766C41.1854 50.9337 41.0565 50.8932 40.927 50.855C40.7974 50.8168 40.6672 50.7809 40.5363 50.7473C40.4053 50.7138 40.2738 50.6826 40.1418 50.6537C40.0098 50.6248 39.8772 50.5984 39.7442 50.5743C39.6112 50.5501 39.4778 50.5284 39.344 50.5091C39.2102 50.4898 39.0761 50.4728 38.9417 50.4583C38.8073 50.4438 38.6726 50.4317 38.5378 50.4219C38.4029 50.4122 38.2679 50.4049 38.1328 50.4001C37.9976 50.3951 37.8624 50.3927 37.7272 50.3927C37.592 50.3926 37.4569 50.395 37.3218 50.3998C37.1866 50.4046 37.0516 50.4118 36.9167 50.4215C36.7819 50.4311 36.6473 50.4431 36.5128 50.4576C36.3783 50.472 36.2442 50.4888 36.1105 50.5081C35.9766 50.5273 35.8432 50.549 35.7102 50.573C35.5772 50.597 35.4446 50.6234 35.3125 50.6522C35.1805 50.6809 35.049 50.7121 34.9181 50.7456C34.7872 50.779 34.6569 50.8148 34.5272 50.853C34.3976 50.8911 34.2688 50.9315 34.1406 50.9743C34.0202 51.0138 33.9003 51.0549 33.7811 51.0978C33.6618 51.1406 33.5431 51.1851 33.4251 51.2312C33.3071 51.2773 33.1898 51.325 33.0731 51.3744C32.9564 51.4238 32.8404 51.4747 32.7253 51.5273C32.61 51.5798 32.4956 51.6339 32.3818 51.6897C32.2681 51.7454 32.1552 51.8027 32.0431 51.8615C31.931 51.9203 31.8197 51.9807 31.7093 52.0426C31.5989 52.1045 31.4895 52.1679 31.3808 52.2329C31.2722 52.2978 31.1645 52.3642 31.0578 52.4321C30.9511 52.5 30.8453 52.5694 30.7405 52.6402C30.6357 52.711 30.532 52.7833 30.4292 52.857C30.3264 52.9307 30.2247 53.0058 30.1241 53.0823C30.0235 53.1588 29.9239 53.2367 29.8254 53.3159C29.727 53.3952 29.6297 53.4757 29.5335 53.5577C29.4373 53.6397 29.3423 53.7229 29.2485 53.8075C29.1547 53.892 29.062 53.9779 28.9706 54.065C28.9048 54.1281 28.8377 54.1898 28.7693 54.2501C28.7009 54.3105 28.6313 54.3693 28.5604 54.4267C28.4895 54.4842 28.4175 54.5401 28.3442 54.5946C28.271 54.649 28.1966 54.7019 28.1211 54.7533C28.0456 54.8046 27.9691 54.8544 27.8915 54.9026C27.814 54.9508 27.7354 54.9974 27.6558 55.0423C27.5763 55.0872 27.4958 55.1305 27.4145 55.1721C27.3331 55.2137 27.2508 55.2536 27.1678 55.2918C27.0847 55.33 27.0009 55.3664 26.9163 55.4011C26.8317 55.4358 26.7464 55.4688 26.6604 55.5C26.5744 55.5312 26.4878 55.5606 26.4006 55.5882C26.3133 55.6158 26.2255 55.6416 26.1372 55.6655C26.0489 55.6895 25.9601 55.7116 25.8708 55.7319C25.7815 55.7522 25.6919 55.7706 25.6019 55.7872C25.5119 55.8038 25.4215 55.8185 25.3308 55.8313C25.2402 55.8441 25.1493 55.8551 25.0582 55.8641C25.0098 55.8627 24.9614 55.8606 24.913 55.8579C24.8647 55.8552 24.8164 55.852 24.7681 55.8481C24.7199 55.8442 24.6717 55.8397 24.6236 55.8346C24.5754 55.8295 24.5273 55.8238 24.4793 55.8176C24.4313 55.8112 24.3834 55.8043 24.3355 55.7968C24.2877 55.7894 24.24 55.7812 24.1924 55.7725C24.1448 55.7638 24.0973 55.7545 24.0499 55.7446C24.0026 55.7347 23.9553 55.7243 23.9082 55.7132C23.8611 55.7021 23.8141 55.6904 23.7673 55.6782C23.7204 55.6659 23.6738 55.6531 23.6273 55.6396C23.5809 55.6262 23.5346 55.6122 23.4884 55.5976C23.4423 55.583 23.3963 55.5678 23.3506 55.5521C23.3049 55.5363 23.2594 55.52 23.2141 55.5031C23.1687 55.4862 23.1236 55.4688 23.0788 55.4507C23.0339 55.4327 22.9892 55.4141 22.9449 55.395C22.9005 55.3759 22.8563 55.3561 22.8124 55.3359C22.7685 55.3156 22.725 55.2948 22.6816 55.2735C22.6382 55.2522 22.5951 55.2302 22.5523 55.2078C22.5096 55.1854 22.467 55.1624 22.4248 55.1389C22.3826 55.1154 22.3407 55.0914 22.2991 55.0668C22.2575 55.0423 22.2162 55.0172 22.1753 54.9917C22.1343 54.9661 22.0937 54.9399 22.0534 54.9134C22.0131 54.8867 21.9732 54.8596 21.9336 54.832C21.894 54.8044 21.8547 54.7763 21.8159 54.7477C21.7771 54.7191 21.7385 54.6901 21.7004 54.6604C21.6623 54.6309 21.6245 54.6009 21.5872 54.5704C21.5498 54.5399 21.5129 54.5089 21.4763 54.4774C21.4398 54.446 21.4036 54.4141 21.3678 54.3818C21.3321 54.3494 21.2968 54.3166 21.2619 54.2834C21.2269 54.2501 21.1924 54.2165 21.1584 54.1824C21.1243 54.1483 21.0908 54.1138 21.0576 54.0788C21.0244 54.0439 20.9917 54.0085 20.9594 53.9728C20.8652 53.8745 20.7694 53.778 20.6717 53.6831C20.5741 53.5883 20.4748 53.4951 20.3739 53.4037C20.2729 53.3123 20.1705 53.2227 20.0664 53.1348C19.9623 53.047 19.8567 52.961 19.7495 52.8768C19.6424 52.7926 19.5337 52.7103 19.4237 52.6299C19.3137 52.5495 19.2022 52.4711 19.0894 52.3946C18.9765 52.318 18.8624 52.2435 18.7469 52.1709C18.6314 52.0983 18.5146 52.0278 18.3967 51.9593C18.2787 51.8908 18.1596 51.8244 18.0392 51.76C17.9189 51.6956 17.7974 51.6334 17.6749 51.5732C17.5523 51.5131 17.4288 51.4551 17.3042 51.3993C17.1796 51.3434 17.054 51.2897 16.9275 51.2382C16.801 51.1868 16.6736 51.1375 16.5454 51.0905C16.4172 51.0434 16.2881 50.9986 16.1583 50.956C16.0285 50.9134 15.8979 50.8731 15.7666 50.8351C15.6354 50.7971 15.5035 50.7614 15.371 50.7279C15.2385 50.6944 15.1054 50.6633 14.9717 50.6345C14.8381 50.6057 14.704 50.5792 14.5694 50.555C14.4349 50.5309 14.2999 50.509 14.1646 50.4896C14.0293 50.4701 13.8936 50.453 13.7576 50.4382C13.6217 50.4235 13.4855 50.4111 13.3492 50.401C13.2127 50.391 13.0763 50.3834 12.9396 50.3781C12.8029 50.3728 12.6662 50.37 12.5295 50.3694C12.3927 50.3689 12.2559 50.3708 12.1193 50.375C11.9826 50.3792 11.846 50.3858 11.7096 50.3948C11.5731 50.4037 11.4368 50.4151 11.3008 50.4288C11.1647 50.4425 11.0289 50.4586 10.8934 50.477C10.758 50.4954 10.6228 50.5162 10.4881 50.5394C10.3533 50.5625 10.219 50.5879 10.0852 50.6157C9.95132 50.6435 9.81796 50.6736 9.68522 50.706C9.55242 50.7385 9.42023 50.7732 9.28871 50.8102C9.15714 50.8472 9.0263 50.8866 8.89613 50.9281C8.46697 51.0614 8.0461 51.2167 7.63351 51.394C7.22093 51.5713 6.81896 51.7697 6.42754 51.9891C6.7296 52.4308 7.04185 52.8653 7.36435 53.2925C7.68678 53.7198 8.01904 54.1394 8.36117 54.5515C8.70331 54.9634 9.05483 55.3673 9.41587 55.7632C9.77691 56.159 10.1471 56.5463 10.5263 56.9251L10.9921 56.9251C11.0541 56.9079 11.1164 56.8919 11.179 56.8769C11.2416 56.8619 11.3044 56.848 11.3674 56.8353C11.4305 56.8225 11.4938 56.8109 11.5573 56.8003C11.6208 56.7898 11.6845 56.7805 11.7483 56.7722C11.8122 56.7639 11.8762 56.7568 11.9402 56.7508C12.0044 56.7448 12.0686 56.74 12.1328 56.7363C12.1971 56.7326 12.2614 56.73 12.3258 56.7285C12.3901 56.7271 12.4545 56.7268 12.5189 56.7276C12.5833 56.7284 12.6477 56.7304 12.712 56.7335C12.7763 56.7366 12.8405 56.7409 12.9047 56.7463C12.9688 56.7517 13.0329 56.7582 13.0968 56.7659C13.1606 56.7735 13.2244 56.7823 13.288 56.7922C13.3516 56.8021 13.415 56.8132 13.4782 56.8253C13.5414 56.8375 13.6044 56.8507 13.6671 56.8651C13.7298 56.8795 13.7923 56.895 13.8545 56.9116C13.9167 56.9282 13.9785 56.9459 14.04 56.9647C14.1016 56.9835 14.1627 57.0034 14.2235 57.0243C14.2843 57.0453 14.3448 57.0673 14.4048 57.0904C14.4647 57.1135 14.5243 57.1376 14.5835 57.1628C14.6427 57.1881 14.7013 57.2143 14.7595 57.2416C14.8177 57.2688 14.8754 57.2971 14.9326 57.3265C14.9897 57.3558 15.0463 57.3862 15.1024 57.4175C15.1585 57.4488 15.214 57.4811 15.2689 57.5144C15.3239 57.5477 15.3781 57.5819 15.4318 57.6171C15.4855 57.6523 15.5385 57.6885 15.5909 57.7256C15.6432 57.7627 15.695 57.8007 15.746 57.8396C15.797 57.8786 15.8472 57.9184 15.8968 57.9591C15.9463 57.9998 15.9952 58.0413 16.0432 58.0838C16.0913 58.1262 16.1386 58.1695 16.1851 58.2136C16.2316 58.2577 16.2773 58.3026 16.3222 58.3483C16.367 58.394 16.4111 58.4405 16.4542 58.4878C16.4974 58.5351 16.5398 58.5831 16.5813 58.6319C16.6489 58.7011 16.7174 58.7693 16.7868 58.8367C16.8561 58.9041 16.9262 58.9707 16.9972 59.0364C17.0682 59.1022 17.14 59.1671 17.2126 59.2311C17.2852 59.2951 17.3585 59.3582 17.4326 59.4205C17.5067 59.4827 17.5816 59.544 17.6572 59.6045C17.7329 59.6649 17.8093 59.7244 17.8863 59.783C17.9635 59.8416 18.0413 59.8992 18.1198 59.956C18.1983 60.0127 18.2775 60.0685 18.3574 60.1232C18.4373 60.1781 18.5178 60.2319 18.599 60.2847C18.6802 60.3376 18.7621 60.3895 18.8446 60.4403C18.927 60.4912 19.0101 60.5411 19.0938 60.59C19.1776 60.6389 19.2619 60.6867 19.3468 60.7336C19.4316 60.7804 19.5171 60.8263 19.6031 60.8713C19.6891 60.9156 19.7757 60.9594 19.8628 61.0026C19.9499 61.0451 20.0375 61.0864 20.1256 61.1272C20.2137 61.1679 20.3023 61.2074 20.3914 61.2457C20.4805 61.284 20.57 61.3217 20.6601 61.3581C20.7501 61.394 20.8405 61.4292 20.9314 61.4633C21.0223 61.4973 21.1135 61.5301 21.2052 61.5624C21.2969 61.5946 21.3889 61.625 21.4814 61.6547C21.5739 61.6845 21.6666 61.7131 21.7597 61.7405C21.8529 61.7678 21.9464 61.7945 22.0401 61.8195C22.134 61.8444 22.2281 61.8687 22.3224 61.8918C22.4168 61.9143 22.5114 61.9362 22.6063 61.9568C22.7013 61.9775 22.7964 61.9969 22.8918 62.0158C22.9873 62.034 23.0829 62.051 23.1787 62.0668C23.2745 62.0833 23.3705 62.0978 23.4667 62.1118C23.5628 62.1258 23.6592 62.138 23.7557 62.1495C23.8522 62.1611 23.9488 62.1708 24.0456 62.1799C24.1423 62.189 24.2391 62.1969 24.3361 62.2036C24.433 62.2103 24.53 62.2164 24.6271 62.2206C24.7242 62.2249 24.8213 62.2285 24.9184 62.2304L25.1979 62.2304C25.2936 62.2249 25.3893 62.2182 25.4849 62.2109C25.5804 62.203 25.6759 62.1945 25.7713 62.1848C25.8667 62.175 25.962 62.1641 26.0571 62.1526C26.1523 62.141 26.2473 62.1282 26.3421 62.1143C26.437 62.1003 26.5317 62.0857 26.6262 62.0693C26.7207 62.0535 26.8151 62.0365 26.9091 62.0188C27.0033 62.0006 27.0972 61.9811 27.1909 61.9611C27.2846 61.941 27.3781 61.9204 27.4713 61.8979C27.5645 61.8754 27.6575 61.8523 27.7502 61.828C27.8429 61.8037 27.9353 61.7781 28.0274 61.752C28.1195 61.7259 28.2114 61.6985 28.3029 61.6699C28.3944 61.6414 28.4855 61.6122 28.5764 61.5818C28.6673 61.5514 28.7577 61.5198 28.8479 61.4876C28.938 61.4554 29.0278 61.4226 29.1172 61.3879C29.2066 61.3533 29.2956 61.318 29.3841 61.2815C29.4727 61.2457 29.5609 61.208 29.6486 61.1697C29.7363 61.1314 29.8236 61.0925 29.9105 61.0518C29.9973 61.0117 30.0837 60.9703 30.1696 60.9284C30.2556 60.8865 30.341 60.8433 30.426 60.7989C30.5109 60.755 30.5954 60.7101 30.6793 60.6642C30.7632 60.6183 30.8466 60.5714 30.9295 60.5237C31.0124 60.4759 31.0947 60.4273 31.1765 60.3777C31.2583 60.3281 31.3395 60.2775 31.4201 60.2262C31.5007 60.1748 31.5808 60.1226 31.6602 60.0694C31.7397 60.0162 31.8185 59.9622 31.8968 59.9073C31.975 59.8524 32.0526 59.7966 32.1296 59.7401C32.2066 59.6834 32.2829 59.6259 32.3586 59.5676C32.4342 59.5093 32.5093 59.4502 32.5836 59.3902C32.6579 59.3302 32.7316 59.2694 32.8045 59.2078C32.8775 59.1462 32.9498 59.0838 33.0214 59.0206C33.0929 58.9574 33.1637 58.8934 33.2338 58.8286C33.304 58.7638 33.3733 58.6983 33.4419 58.6319C33.5469 58.5401 33.6542 58.4509 33.7636 58.3644C33.8731 58.2778 33.9846 58.194 34.0982 58.1128C34.2118 58.0317 34.3274 57.9534 34.445 57.8779C34.5625 57.8024 34.6818 57.7298 34.8029 57.6602C34.9241 57.5905 35.0469 57.5238 35.1713 57.4602C35.2957 57.3965 35.4217 57.336 35.5492 57.2784C35.6766 57.2209 35.8055 57.1665 35.9356 57.1153C36.0658 57.0641 36.1971 57.0161 36.3297 56.9713C36.3878 56.9514 36.4462 56.9327 36.505 56.9151C36.5638 56.8975 36.6229 56.8811 36.6824 56.8659C36.7418 56.8506 36.8016 56.8366 36.8616 56.8236C36.9216 56.8107 36.9819 56.7989 37.0424 56.7884C37.1029 56.7779 37.1636 56.7686 37.2244 56.7603C37.2853 56.7521 37.3463 56.7452 37.4074 56.7394C37.4686 56.7337 37.5298 56.729 37.5911 56.7257C37.6524 56.7223 37.7138 56.7201 37.7752 56.7191C37.8367 56.7182 37.898 56.7184 37.9595 56.7198C38.0209 56.7212 38.0822 56.7239 38.1435 56.7277C38.2048 56.7315 38.266 56.7365 38.3271 56.7428C38.3882 56.749 38.4491 56.7565 38.51 56.7651C38.5708 56.7737 38.6313 56.7834 38.6918 56.7944C38.7522 56.8054 38.8123 56.8177 38.8723 56.831C38.9322 56.8443 38.9918 56.8589 39.0512 56.8746C39.1105 56.8902 39.1695 56.9071 39.2282 56.9251C39.2868 56.9431 39.3451 56.9622 39.4031 56.9825C39.4609 57.0027 39.5184 57.0241 39.5755 57.0467C39.6325 57.0692 39.6891 57.0929 39.7452 57.1176C39.8013 57.1424 39.857 57.1683 39.912 57.1952C39.967 57.2221 40.0216 57.2501 40.0756 57.2792C40.1295 57.3082 40.1829 57.3383 40.2356 57.3695C40.2883 57.4007 40.3404 57.4328 40.3919 57.466C40.4434 57.4992 40.4942 57.5334 40.5443 57.5686C40.5944 57.6038 40.6438 57.6399 40.6924 57.6771C40.7411 57.7142 40.789 57.7522 40.8361 57.7913C40.8833 57.8302 40.9296 57.8702 40.9752 57.9109C41.0207 57.9517 41.0654 57.9934 41.1093 58.036C41.1531 58.0786 41.1962 58.122 41.2383 58.1663C41.2805 58.2105 41.3217 58.2556 41.362 58.3015C41.4024 58.3474 41.4418 58.394 41.4803 58.4414C41.5188 58.4888 41.5563 58.5369 41.5928 58.5858C41.6839 58.6849 41.7766 58.7824 41.8712 58.8783C41.9657 58.9741 42.062 59.0683 42.16 59.1607C42.258 59.2531 42.3576 59.3438 42.4588 59.4326C42.5601 59.5214 42.6629 59.6085 42.7673 59.6937C42.8718 59.7788 42.9777 59.8622 43.0852 59.9436C43.1926 60.0249 43.3016 60.1044 43.4119 60.182C43.5222 60.2595 43.6339 60.335 43.747 60.4086C43.8601 60.4821 43.9745 60.5536 44.0902 60.6231C44.2059 60.6926 44.3229 60.7599 44.441 60.8251C44.5591 60.8901 44.6785 60.9533 44.7989 61.0147C44.9193 61.0761 45.0408 61.1351 45.1634 61.1916C45.2859 61.2481 45.4095 61.3028 45.5341 61.3551C45.6586 61.4074 45.7841 61.4572 45.9105 61.5052C46.0369 61.5532 46.1641 61.5988 46.2922 61.642C46.4202 61.6851 46.5489 61.7259 46.6785 61.7648C46.808 61.8031 46.9382 61.8395 47.0691 61.8736C47.1999 61.9076 47.3313 61.9392 47.4633 61.969C47.5953 61.9982 47.7278 62.0249 47.8608 62.0498C47.9938 62.0748 48.1272 62.0966 48.261 62.1167C48.3948 62.1367 48.5289 62.1538 48.6634 62.169C48.7978 62.1842 48.9325 62.1969 49.0674 62.2073C49.2022 62.2176 49.3373 62.2255 49.4725 62.231C49.6077 62.2364 49.7429 62.2395 49.8782 62.2401C50.0134 62.2407 50.1487 62.2389 50.2839 62.2346C50.4191 62.2304 50.5543 62.2243 50.6892 62.2152C50.8242 62.206 50.959 62.1951 51.0936 62.1811C51.2282 62.1671 51.3625 62.1513 51.4964 62.1325C51.6304 62.1137 51.764 62.093 51.8972 62.0693C52.0305 62.0462 52.1632 62.0207 52.2955 61.9921C52.4278 61.9641 52.5595 61.9337 52.6907 61.9009C52.8219 61.8681 52.9524 61.8328 53.0823 61.7958C53.2123 61.7587 53.3414 61.7186 53.4699 61.6766C53.589 61.6359 53.7076 61.594 53.8256 61.5502C53.9436 61.5064 54.0609 61.4615 54.1777 61.4147C54.2944 61.3679 54.4106 61.3192 54.526 61.2694C54.6414 61.2195 54.7561 61.1679 54.8702 61.115C54.9842 61.0621 55.0975 61.0074 55.21 60.9515C55.3226 60.895 55.4343 60.8378 55.5453 60.7786C55.6562 60.7196 55.7664 60.6591 55.8757 60.5971C55.985 60.5351 56.0934 60.4716 56.201 60.4067C56.3086 60.3418 56.4153 60.2755 56.5211 60.2077C56.6268 60.1399 56.7316 60.0708 56.8355 60.0003C56.9394 59.9297 57.0423 59.8577 57.1443 59.7844C57.2462 59.7111 57.3471 59.6364 57.4469 59.5604C57.5468 59.4843 57.6457 59.407 57.7434 59.3284C57.8412 59.2497 57.9378 59.1697 58.0335 59.0885C58.129 59.0072 58.2234 58.9247 58.3168 58.8409C58.4101 58.7571 58.5023 58.6721 58.5933 58.5858C58.6959 58.4951 58.8007 58.4071 58.9078 58.3217C59.0151 58.2364 59.1244 58.1538 59.2359 58.0741C59.3474 57.9945 59.4609 57.9177 59.5765 57.8438C59.692 57.77 59.8094 57.6992 59.9287 57.6314C60.0479 57.5636 60.1689 57.499 60.2916 57.4375C60.4143 57.3759 60.5384 57.3176 60.6642 57.2625C60.7899 57.2073 60.917 57.1555 61.0455 57.1069C61.1739 57.0584 61.3036 57.0131 61.4346 56.9713C61.4917 56.9512 61.5488 56.9324 61.6064 56.9147C61.6641 56.8972 61.7224 56.8808 61.7807 56.8656C61.839 56.8505 61.8973 56.8366 61.9563 56.8239C62.0158 56.8112 62.0747 56.7997 62.1342 56.7896C62.1938 56.7794 62.2533 56.7705 62.3134 56.7628C62.373 56.7552 62.4331 56.7489 62.4932 56.7438C62.5534 56.7386 62.6135 56.7348 62.6743 56.7323C62.7344 56.7297 62.7946 56.7284 62.8553 56.7284C62.9155 56.7284 62.9756 56.7297 63.0364 56.7323C63.0965 56.7348 63.1566 56.7386 63.2168 56.7438C63.2769 56.7489 63.3371 56.7552 63.3966 56.7629C63.4567 56.7705 63.5163 56.7794 63.5758 56.7896C63.6353 56.7997 63.6942 56.8112 63.7538 56.8239C63.8127 56.8366 63.8716 56.8505 63.9299 56.8656C63.9882 56.8808 64.0459 56.8972 64.1036 56.9147C64.1613 56.9324 64.2183 56.9512 64.2754 56.9713C64.6553 56.5885 65.0253 56.1971 65.3862 55.7974C65.7477 55.3976 66.0993 54.9898 66.4411 54.574C66.783 54.1582 67.1156 53.7347 67.4378 53.3037C67.76 52.8727 68.0723 52.4345 68.3743 51.9891C68.2902 51.9409 68.2061 51.8939 68.1208 51.8479C68.0355 51.8019 67.9496 51.7571 67.8631 51.7134C67.7765 51.6697 67.69 51.6272 67.6022 51.5858C67.5145 51.5444 67.4267 51.5042 67.3377 51.4651C67.2494 51.4261 67.1604 51.3882 67.0708 51.3515C66.9806 51.3148 66.8904 51.2793 66.8001 51.245C66.7093 51.2107 66.6185 51.1776 66.5271 51.1457C66.4356 51.1138 66.3436 51.0831 66.2509 51.0536C66.1588 51.0241 66.0662 50.9959 65.9729 50.9689C65.8796 50.9418 65.7863 50.916 65.6924 50.8915C65.5985 50.8669 65.5046 50.8437 65.4101 50.8216C65.3156 50.7995 65.2211 50.7787 65.126 50.7592C65.0309 50.7396 64.9357 50.7213 64.8406 50.7043C64.7449 50.6872 64.6491 50.6715 64.5534 50.6569C64.4571 50.6424 64.3613 50.6292 64.265 50.6172C64.1686 50.6053 64.0723 50.5946 63.9759 50.5851C63.8796 50.5757 63.7826 50.5676 63.6856 50.5608C63.5893 50.5539 63.4923 50.5483 63.3954 50.544C63.2984 50.5397 63.2014 50.5367 63.1045 50.535C63.0075 50.5332 62.9105 50.5328 62.813 50.5336C62.716 50.5345 62.619 50.5366 62.5221 50.54C62.4251 50.5434 62.3282 50.5481 62.2318 50.554C62.1348 50.56 62.0379 50.5672 61.9415 50.5758C61.8452 50.5843 61.7482 50.5941 61.6519 50.6051C61.5555 50.6163 61.4592 50.6286 61.3632 50.6422C61.2672 50.6558 61.1713 50.6707 61.0757 50.6868C60.98 50.703 60.8847 50.7204 60.7895 50.7391C60.6943 50.7578 60.5994 50.7777 60.5048 50.7989C60.4102 50.8201 60.3158 50.8426 60.2218 50.8662C60.1277 50.8898 60.034 50.9148 59.9407 50.941C59.8474 50.9672 59.7544 50.9945 59.6618 51.0231C59.5692 51.0518 59.4769 51.0816 59.3851 51.1127L59.292 50.9743ZM70.4701 40.9178C70.3798 40.8185 70.2884 40.7208 70.1945 40.6249C70.1006 40.5289 70.0049 40.4346 69.9079 40.3421C69.8103 40.2495 69.7115 40.1588 69.6109 40.0699C69.5102 39.9809 69.4077 39.8938 69.304 39.8086C69.2003 39.7233 69.0948 39.64 68.988 39.5585C68.8812 39.4771 68.7726 39.3976 68.6627 39.32C68.5529 39.2425 68.4418 39.167 68.3295 39.0935C68.2166 39.02 68.1024 38.9485 67.9877 38.8791C67.8723 38.8097 67.7557 38.7425 67.6378 38.6772C67.52 38.6121 67.401 38.549 67.2813 38.4881C67.1616 38.4273 67.0401 38.3686 66.918 38.3121C66.7959 38.2556 66.6725 38.2013 66.5479 38.1493C66.424 38.0973 66.2988 38.0475 66.173 37.9999C66.0471 37.9524 65.9201 37.9072 65.7918 37.8642C65.6642 37.8213 65.5359 37.7807 65.4065 37.7424C65.2776 37.7041 65.1481 37.6682 65.0174 37.6346C64.8867 37.601 64.7553 37.5698 64.624 37.5409C64.492 37.512 64.3601 37.4856 64.2269 37.4615C64.0944 37.4374 63.9612 37.4158 63.828 37.3965C63.6949 37.3772 63.5611 37.3603 63.4267 37.3459C63.2923 37.3315 63.1579 37.3195 63.0235 37.3099C62.8891 37.3004 62.7547 37.2932 62.6197 37.2885C62.4853 37.2838 62.3502 37.2815 62.2152 37.2817C62.0802 37.2819 61.9452 37.2845 61.8108 37.2895C61.6764 37.2946 61.5414 37.302 61.407 37.312C61.2724 37.3219 61.1381 37.3342 61.004 37.349C60.8699 37.3637 60.7362 37.3809 60.6028 37.4005C60.4694 37.4201 60.3364 37.4421 60.2038 37.4665C60.0712 37.491 59.9391 37.5178 59.8075 37.5469C59.6758 37.5761 59.5448 37.6077 59.4143 37.6416C59.2839 37.6755 59.1541 37.7118 59.0249 37.7504C58.8959 37.789 58.7675 37.8299 58.6399 37.8732C58.4004 37.9528 58.1633 38.0386 57.9284 38.1307C57.6936 38.2228 57.4614 38.321 57.2318 38.4253C57.0023 38.5297 56.7756 38.6399 56.552 38.7561C56.3283 38.8724 56.1079 38.9945 55.8909 39.1223C55.6738 39.2501 55.4603 39.3836 55.2503 39.5227C55.0404 39.6618 54.8343 39.8063 54.6322 39.9563C54.43 40.1062 54.232 40.2613 54.0381 40.4217C53.8442 40.5821 53.6549 40.7475 53.4699 40.9178C53.3715 41.0054 53.271 41.0906 53.1686 41.1735C53.0662 41.2564 52.9618 41.3368 52.8555 41.4148C52.7492 41.4928 52.6412 41.5683 52.5312 41.6411C52.4213 41.7141 52.3098 41.7844 52.1965 41.8521C52.0833 41.9198 51.9685 41.9848 51.8521 42.0471C51.7358 42.1094 51.618 42.1689 51.4988 42.2257C51.3795 42.2825 51.259 42.3365 51.1372 42.3876C51.0155 42.4387 50.8925 42.487 50.7685 42.5324C50.7093 42.5543 50.6497 42.575 50.5897 42.5945C50.5297 42.614 50.4693 42.6323 50.4085 42.6493C50.3478 42.6664 50.2867 42.6822 50.2253 42.6969C50.1638 42.7115 50.1022 42.7249 50.0402 42.737C49.9783 42.7491 49.916 42.76 49.8536 42.7696C49.7912 42.7792 49.7287 42.7876 49.6659 42.7947C49.6031 42.8018 49.5403 42.8076 49.4773 42.8122C49.4143 42.8167 49.3512 42.82 49.2881 42.8221C49.225 42.8241 49.1619 42.8248 49.0987 42.8243C49.0356 42.8238 48.9724 42.822 48.9093 42.8189C48.8462 42.8159 48.7833 42.8116 48.7204 42.8059C48.6575 42.8003 48.5947 42.7935 48.5321 42.7854C48.4694 42.7772 48.407 42.7678 48.3448 42.7572C48.2825 42.7465 48.2205 42.7346 48.1588 42.7215C48.097 42.7084 48.0356 42.694 47.9744 42.6783C47.9132 42.6627 47.8524 42.6459 47.792 42.6278C47.7315 42.6098 47.6714 42.5904 47.6118 42.57C47.5521 42.5495 47.4929 42.5278 47.4341 42.5049C47.3753 42.4821 47.317 42.458 47.2592 42.4328C47.2014 42.4075 47.1442 42.3812 47.0875 42.3536C47.0307 42.3261 46.9746 42.2975 46.9191 42.2676C46.8635 42.2378 46.8087 42.207 46.7544 42.1749C46.7001 42.1429 46.6465 42.1098 46.5936 42.0757C46.5407 42.0415 46.4885 42.0063 46.4371 41.97C46.3856 41.9338 46.3349 41.8965 46.285 41.8582C46.2351 41.8198 46.1859 41.7806 46.1376 41.7403C46.0893 41.7 46.0418 41.6588 45.9952 41.6165C45.9486 41.5743 45.9029 41.5313 45.858 41.4872C45.8132 41.4431 45.7692 41.3982 45.7262 41.3524C45.6832 41.3066 45.6412 41.2599 45.6001 41.2124C45.559 41.1649 45.5189 41.1166 45.4798 41.0675C45.4407 41.0183 45.4026 40.9684 45.3655 40.9178C45.2747 40.8185 45.182 40.721 45.0875 40.6251C44.9931 40.5291 44.8969 40.4349 44.7989 40.3425C44.701 40.25 44.6014 40.1593 44.5002 40.0705C44.399 39.9816 44.2961 39.8945 44.1917 39.8094C44.0872 39.7242 43.9812 39.6409 43.8738 39.5595C43.7663 39.4782 43.6574 39.3988 43.547 39.3213C43.4366 39.2438 43.3248 39.1684 43.2116 39.095C43.0984 39.0215 42.984 38.9501 42.8682 38.8809C42.7524 38.8115 42.6354 38.7443 42.5171 38.6792C42.3989 38.6141 42.2795 38.5512 42.1589 38.4903C42.0384 38.4295 41.9168 38.3709 41.7941 38.3144C41.6714 38.258 41.5477 38.2037 41.423 38.1518C41.2983 38.0998 41.1727 38.05 41.0462 38.0026C40.9197 37.9551 40.7923 37.9099 40.6641 37.867C40.5359 37.8242 40.4071 37.7836 40.2774 37.7453C40.1477 37.707 40.0174 37.6711 39.8865 37.6376C39.7554 37.604 39.6239 37.5728 39.4918 37.5439C39.3597 37.515 39.2271 37.4886 39.094 37.4645C38.9609 37.4404 38.8274 37.4187 38.6935 37.3995C38.5597 37.3802 38.4254 37.3634 38.291 37.3489C38.1565 37.3344 38.0218 37.3224 37.8868 37.3128C37.7519 37.3032 37.6168 37.296 37.4816 37.2913C37.3464 37.2865 37.2111 37.2842 37.0758 37.2844C36.9405 37.2845 36.8053 37.287 36.6701 37.292C36.5349 37.297 36.3998 37.3044 36.2649 37.3142C36.13 37.324 35.9953 37.3363 35.8608 37.351C35.7264 37.3657 35.5921 37.3828 35.4583 37.4023C35.3244 37.4218 35.191 37.4437 35.058 37.468C34.9249 37.4923 34.7924 37.519 34.6603 37.548C34.5282 37.5771 34.3967 37.6086 34.2658 37.6424C34.1349 37.6762 34.0046 37.7123 33.8751 37.7508C33.7455 37.7893 33.6166 37.8301 33.4885 37.8732C33.3681 37.9127 33.2482 37.9539 33.129 37.9967C33.0098 38.0396 32.8911 38.084 32.7731 38.1301C32.6551 38.1763 32.5377 38.224 32.421 38.2733C32.3044 38.3227 32.1884 38.3736 32.0731 38.4262C31.958 38.4787 31.8434 38.5328 31.7297 38.5886C31.616 38.6443 31.5031 38.7015 31.391 38.7604C31.2789 38.8192 31.1677 38.8796 31.0573 38.9415C30.9469 39.0035 30.8373 39.0668 30.7288 39.1318C30.6202 39.1967 30.5125 39.2631 30.4057 39.331C30.299 39.3989 30.1932 39.4683 30.0884 39.5391C29.9836 39.6099 29.8799 39.6822 29.7771 39.7559C29.6743 39.8296 29.5726 39.9047 29.472 39.9812C29.3713 40.0577 29.2718 40.1356 29.1734 40.2148C29.0749 40.2941 28.9776 40.3747 28.8814 40.4566C28.7853 40.5386 28.6903 40.6218 28.5964 40.7064C28.5026 40.7909 28.4099 40.8768 28.3186 40.9639C28.2251 41.0534 28.1292 41.1402 28.0307 41.2242C27.9322 41.3082 27.8313 41.3894 27.7281 41.4676C27.6248 41.5459 27.5194 41.6212 27.4118 41.6934C27.3042 41.7656 27.1946 41.8347 27.0829 41.9006C26.9713 41.9666 26.8578 42.0293 26.7425 42.0887C26.6272 42.1483 26.5103 42.2044 26.3917 42.2571C26.2732 42.3099 26.1532 42.3593 26.0317 42.4052C25.9103 42.4511 25.7875 42.4935 25.6636 42.5324C25.6035 42.5498 25.5431 42.5661 25.4822 42.5812C25.4214 42.5963 25.3604 42.6104 25.2991 42.6233C25.2378 42.6363 25.1762 42.6481 25.1145 42.6588C25.0527 42.6694 24.9908 42.6789 24.9287 42.6873C24.8666 42.6958 24.8043 42.703 24.7419 42.7091C24.6796 42.7152 24.6171 42.7202 24.5545 42.724C24.492 42.7279 24.4293 42.7305 24.3667 42.7321C24.304 42.7336 24.2413 42.7339 24.1787 42.7332C24.116 42.7324 24.0534 42.7305 23.9907 42.7274C23.9281 42.7243 23.8656 42.7201 23.8032 42.7147C23.7407 42.7094 23.6783 42.7029 23.6162 42.6952C23.5539 42.6876 23.4919 42.6788 23.43 42.6688C23.3681 42.6589 23.3064 42.6479 23.245 42.6357C23.1836 42.6234 23.1223 42.6101 23.0614 42.5957C23.0004 42.5813 22.9397 42.5658 22.8793 42.5491C22.8189 42.5324 22.7589 42.5146 22.6992 42.4958C22.6395 42.4769 22.5801 42.457 22.5212 42.4359C22.4622 42.4148 22.4036 42.3927 22.3455 42.3696C22.2873 42.3464 22.2297 42.3221 22.1724 42.2968C22.1151 42.2715 22.0584 42.2452 22.0022 42.2178C21.9459 42.1904 21.8901 42.162 21.8349 42.1325C21.7798 42.1031 21.7251 42.0726 21.6711 42.0412C21.617 42.0098 21.5636 41.9773 21.5108 41.944C21.4579 41.9106 21.4057 41.8762 21.3542 41.8409C21.3026 41.8056 21.2517 41.7693 21.2015 41.7321C21.1513 41.6949 21.1018 41.6568 21.053 41.6179C21.0042 41.5788 20.9562 41.539 20.909 41.4982C20.8617 41.4575 20.8151 41.4159 20.7694 41.3734C20.7237 41.3309 20.6788 41.2876 20.6347 41.2435C20.5905 41.1994 20.5473 41.1545 20.5049 41.1088C20.4625 41.0631 20.4208 41.0166 20.3802 40.9694C20.3395 40.9222 20.2997 40.8742 20.2608 40.8255C20.1659 40.7276 20.0691 40.6313 19.9708 40.5367C19.8724 40.4421 19.7724 40.3493 19.6707 40.2582C19.569 40.1671 19.4658 40.0777 19.361 39.9902C19.2562 39.9026 19.1498 39.8169 19.042 39.7331C18.9341 39.6493 18.8248 39.5673 18.714 39.4872C18.6033 39.4072 18.4911 39.3291 18.3777 39.2529C18.2641 39.1767 18.1493 39.1026 18.0331 39.0304C17.917 38.9583 17.7996 38.8881 17.681 38.82C17.5624 38.7519 17.4426 38.6859 17.3216 38.6219C17.2007 38.558 17.0787 38.4962 16.9555 38.4365C16.8323 38.3767 16.7082 38.3192 16.583 38.2638C16.4578 38.2084 16.3317 38.1552 16.2046 38.1042C16.0775 38.0532 15.9496 38.0044 15.8208 37.9578C15.692 37.9112 15.5624 37.8669 15.4321 37.8248C15.3017 37.7827 15.1706 37.7429 15.0389 37.7054C14.9071 37.6679 14.7747 37.6326 14.6417 37.5997C14.5087 37.5667 14.3751 37.5361 14.241 37.5079C14.1069 37.4795 13.9723 37.4536 13.8373 37.4299C13.7023 37.4063 13.5669 37.385 13.4311 37.3661C13.2953 37.3472 13.1593 37.3306 13.0229 37.3164C12.8866 37.3022 12.75 37.2903 12.6132 37.2809C12.4764 37.2714 12.3395 37.2643 12.2025 37.2596C12.0654 37.2549 11.9284 37.2525 11.7913 37.2526C11.6542 37.2526 11.5171 37.2551 11.3801 37.2599C11.243 37.2647 11.1062 37.2718 10.9694 37.2814C10.8326 37.2909 10.696 37.3028 10.5597 37.3171C10.4234 37.3314 10.2873 37.3481 10.1516 37.3671C10.0158 37.3861 9.88038 37.4075 9.74536 37.4312C9.61041 37.4549 9.47583 37.481 9.34174 37.5094C9.20764 37.5378 9.0741 37.5685 8.94112 37.6015C8.80813 37.6345 8.67575 37.6698 8.54399 37.7074C8.41223 37.745 8.28121 37.7849 8.15092 37.8271C8.02972 37.8668 7.90906 37.9082 7.78902 37.9513C7.66899 37.9942 7.54956 38.0389 7.43075 38.0852C7.31194 38.1314 7.1938 38.1793 7.07628 38.2288C6.95876 38.2783 6.84197 38.3294 6.72592 38.382C6.60987 38.4347 6.49456 38.4889 6.37998 38.5447C6.2654 38.6004 6.15162 38.6577 6.03862 38.7166C5.92564 38.7755 5.81349 38.8359 5.70217 38.8978C5.59085 38.9598 5.48042 39.0231 5.37086 39.0881C5.26129 39.153 5.15265 39.2194 5.04493 39.2872C4.93721 39.3551 4.83044 39.4244 4.72463 39.4952C4.61883 39.5659 4.51402 39.6381 4.41021 39.7117C4.30641 39.7854 4.20363 39.8603 4.1019 39.9367C4.00017 40.0131 3.89951 40.0909 3.79993 40.17C3.70035 40.2491 3.60188 40.3296 3.50453 40.4114C3.40718 40.4932 3.31098 40.5763 3.21592 40.6607C3.12087 40.7452 3.027 40.8308 2.93432 40.9178C2.72137 41.1123 2.49808 41.2944 2.26447 41.4641C2.03085 41.6338 1.78837 41.79 1.53703 41.9327C1.85019 42.9252 2.20508 43.9028 2.6017 44.8656C2.9983 45.8283 3.43521 46.7728 3.91243 47.699C4.07639 47.6236 4.23861 47.5447 4.39909 47.4624C4.55958 47.38 4.71817 47.2942 4.87488 47.2049C5.03159 47.1157 5.18626 47.0231 5.33889 46.9272C5.49152 46.8314 5.64197 46.7322 5.79024 46.6298C5.9385 46.5273 6.08445 46.4218 6.22809 46.3131C6.37169 46.2044 6.51284 46.0926 6.65154 45.9778C6.79024 45.863 6.92635 45.7453 7.05983 45.6246C7.19337 45.504 7.32415 45.3804 7.45223 45.2541C7.55152 45.1677 7.65272 45.0834 7.75576 45.0014C7.8588 44.9194 7.96368 44.8398 8.07034 44.7624C8.17694 44.685 8.28526 44.6101 8.39529 44.5375C8.50533 44.465 8.61696 44.3949 8.73013 44.3272C8.84329 44.2596 8.95793 44.1945 9.07404 44.1319C9.19015 44.0693 9.30761 44.0093 9.42642 43.952C9.54524 43.8945 9.66528 43.8398 9.78654 43.7877C9.90781 43.7356 10.0302 43.6862 10.1537 43.6395C10.2373 43.6103 10.3217 43.5835 10.4069 43.5591C10.492 43.5346 10.5778 43.5126 10.6642 43.4931C10.7507 43.4735 10.8376 43.4563 10.925 43.4417C11.0125 43.427 11.1002 43.4148 11.1883 43.4052C11.2764 43.3955 11.3647 43.3883 11.4533 43.3836C11.5418 43.3789 11.6304 43.3767 11.7191 43.377C11.8077 43.3773 11.8963 43.3801 11.9848 43.3854C12.0733 43.3907 12.1615 43.3985 12.2496 43.4089C12.3378 43.4204 12.4257 43.4338 12.5134 43.4491C12.601 43.4644 12.6882 43.4815 12.7751 43.5005C12.862 43.5195 12.9484 43.5403 13.0344 43.5629C13.1204 43.5856 13.2058 43.61 13.2907 43.6363C13.3757 43.6625 13.46 43.6905 13.5437 43.7204C13.6274 43.7502 13.7105 43.7818 13.7928 43.8151C13.8752 43.8485 13.9568 43.8836 14.0376 43.9203C14.1184 43.9571 14.1984 43.9957 14.2776 44.0358C14.3568 44.076 14.435 44.1179 14.5124 44.1613C14.5898 44.2049 14.6662 44.25 14.7416 44.2967C14.817 44.3434 14.8914 44.3918 14.9647 44.4417C15.0381 44.4916 15.1103 44.543 15.1814 44.5959C15.2525 44.6489 15.3224 44.7033 15.3912 44.7592C15.46 44.8151 15.5275 44.8725 15.5938 44.9313C15.6601 44.99 15.7251 45.0502 15.7887 45.1117C15.8524 45.1732 15.9148 45.236 15.9757 45.3002C16.043 45.3701 16.1111 45.4391 16.18 45.5073C16.2489 45.5754 16.3187 45.6428 16.3893 45.7093C16.4599 45.7758 16.5314 45.8414 16.6036 45.9062C16.6758 45.9709 16.7489 46.0348 16.8227 46.0977C16.8965 46.1607 16.9711 46.2228 17.0465 46.2839C17.1219 46.3451 17.198 46.4053 17.2749 46.4646C17.3518 46.5239 17.4293 46.5822 17.5076 46.6396C17.5859 46.697 17.665 46.7535 17.7447 46.8089C17.8244 46.8644 17.9048 46.9189 17.9859 46.9725C18.067 47.0259 18.1486 47.0785 18.2311 47.13C18.3134 47.1815 18.3964 47.232 18.4801 47.2815C18.5637 47.3311 18.6479 47.3795 18.7328 47.427C18.8176 47.4744 18.9031 47.5208 18.989 47.5662C19.075 47.6116 19.1615 47.6559 19.2486 47.6992C19.3357 47.7424 19.4233 47.7846 19.5115 47.8257C19.5997 47.8669 19.6883 47.9069 19.7774 47.9459C19.8666 47.9848 19.9562 48.0227 20.0462 48.0595C20.1363 48.0962 20.2268 48.1319 20.3178 48.1665C20.4088 48.201 20.5001 48.2345 20.5919 48.2669C20.6837 48.2992 20.7759 48.3304 20.8685 48.3605C20.9611 48.3906 21.054 48.4196 21.1473 48.4474C21.2406 48.4752 21.3341 48.5019 21.4281 48.5275C21.5221 48.553 21.6163 48.5774 21.7109 48.6007C21.8055 48.624 21.9003 48.646 21.9954 48.667C22.0905 48.688 22.1859 48.7077 22.2814 48.7263C22.3771 48.745 22.4729 48.7624 22.5689 48.7787C22.6649 48.7949 22.7612 48.8101 22.8576 48.824C22.954 48.8379 23.0505 48.8507 23.1472 48.8623C23.244 48.8739 23.3409 48.8843 23.4378 48.8935C23.5349 48.9027 23.6319 48.9107 23.7291 48.9176C23.8262 48.9245 23.9235 48.9302 24.0208 48.9346C24.1182 48.9391 24.2156 48.9424 24.313 48.9445C24.4091 48.9402 24.5051 48.9349 24.6011 48.9284C24.6971 48.9219 24.7929 48.9144 24.8887 48.9058C24.9845 48.8972 25.0803 48.8874 25.1758 48.8767C25.2714 48.8659 25.3669 48.8541 25.4622 48.8412C25.5575 48.8282 25.6527 48.8143 25.7476 48.7993C25.8426 48.7842 25.9374 48.7681 26.032 48.7509C26.1267 48.7337 26.2211 48.7154 26.3153 48.6962C26.4095 48.6769 26.5035 48.6565 26.5972 48.6351C26.6909 48.6137 26.7844 48.5912 26.8777 48.5677C26.9709 48.5442 27.0638 48.5196 27.1565 48.494C27.2491 48.4684 27.3415 48.4417 27.4335 48.4141C27.5256 48.3864 27.6173 48.3577 27.7087 48.3279C27.8 48.2982 27.8911 48.2674 27.9818 48.2356C28.0725 48.2038 28.1628 48.1711 28.2527 48.1372C28.3427 48.1034 28.4322 48.0685 28.5213 48.0327C28.6105 47.9969 28.6992 47.9601 28.7875 47.9222C28.8758 47.8844 28.9636 47.8456 29.051 47.8058C29.1385 47.766 29.2253 47.7252 29.3118 47.6835C29.3983 47.6417 29.4843 47.599 29.5698 47.5553C29.6552 47.5116 29.7402 47.467 29.8247 47.4213C29.9092 47.3757 29.9931 47.3292 30.0765 47.2817C30.1599 47.2342 30.2427 47.1858 30.325 47.1364C30.4073 47.0871 30.489 47.0368 30.5701 46.9856C30.6513 46.9345 30.7319 46.8824 30.8118 46.8294C30.8918 46.7764 30.9711 46.7225 31.0497 46.6677C31.1285 46.6129 31.2065 46.5573 31.284 46.5007C31.3614 46.4442 31.4382 46.3868 31.5143 46.3285C31.5905 46.2703 31.6659 46.2112 31.7406 46.1512C31.8154 46.0912 31.8895 46.0305 31.9629 45.9689C32.0362 45.9072 32.1089 45.8448 32.1808 45.7815C32.2528 45.7183 32.324 45.6542 32.3944 45.5894C32.4649 45.5245 32.5346 45.4589 32.6036 45.3925C32.7029 45.306 32.8041 45.2218 32.9071 45.1398C33.0101 45.0578 33.115 44.9782 33.2217 44.9008C33.3283 44.8234 33.4366 44.7485 33.5466 44.6759C33.6567 44.6034 33.7683 44.5333 33.8815 44.4656C33.9946 44.398 34.1093 44.3329 34.2254 44.2703C34.3415 44.2077 34.4589 44.1477 34.5778 44.0903C34.6966 44.0329 34.8166 43.9782 34.9379 43.9261C35.0591 43.874 35.1815 43.8246 35.305 43.7779C35.3651 43.7583 35.4256 43.7398 35.4865 43.7225C35.5473 43.7052 35.6084 43.689 35.6698 43.6738C35.7313 43.6587 35.793 43.6448 35.8549 43.632C35.9169 43.6192 35.9791 43.6076 36.0415 43.597C36.1039 43.5865 36.1664 43.5772 36.2292 43.569C36.292 43.5608 36.3548 43.5538 36.4179 43.548C36.4809 43.5421 36.544 43.5374 36.6072 43.534C36.6704 43.5304 36.7337 43.5281 36.7969 43.5269C36.8602 43.5258 36.9235 43.5258 36.9868 43.5269C37.0501 43.5281 37.1133 43.5304 37.1765 43.534C37.2397 43.5375 37.3028 43.5422 37.3658 43.5481C37.4289 43.5539 37.4917 43.5609 37.5545 43.5691C37.6173 43.5773 37.6798 43.5866 37.7422 43.5971C37.8046 43.6076 37.8669 43.6193 37.9288 43.6321C37.9908 43.6449 38.0524 43.6589 38.1139 43.6739C38.1753 43.689 38.2364 43.7052 38.2972 43.7226C38.3581 43.7399 38.4186 43.7584 38.4787 43.7781C38.5388 43.7976 38.5986 43.8184 38.6579 43.8402C38.7173 43.862 38.7761 43.8849 38.8346 43.9089C38.8931 43.9329 38.9511 43.9579 39.0086 43.984C39.0661 44.0102 39.1232 44.0374 39.1797 44.0657C39.2362 44.0939 39.2921 44.1232 39.3475 44.1535C39.4029 44.1838 39.4577 44.2152 39.5119 44.2475C39.5661 44.2799 39.6198 44.3132 39.6727 44.3476C39.7257 44.3819 39.778 44.4172 39.8296 44.4535C39.8812 44.4898 39.9321 44.527 39.9823 44.5652C40.0325 44.6034 40.082 44.6424 40.1308 44.6824C40.1795 44.7224 40.2275 44.7633 40.2747 44.8051C40.3219 44.8468 40.3682 44.8895 40.4138 44.933C40.4594 44.9765 40.5042 45.0208 40.5481 45.066C40.592 45.1111 40.6351 45.1571 40.6772 45.2038C40.7194 45.2506 40.7607 45.298 40.8011 45.3464C40.891 45.4462 40.9827 45.5443 41.0761 45.6408C41.1696 45.7372 41.2648 45.832 41.3618 45.9251C41.4588 46.0181 41.5575 46.1093 41.6578 46.1988C41.7582 46.2883 41.8602 46.3759 41.9638 46.4617C42.0674 46.5475 42.1725 46.6313 42.2791 46.7133C42.3859 46.7953 42.494 46.8753 42.6037 46.9534C42.7133 47.0315 42.8243 47.1075 42.9367 47.1815C43.0492 47.2556 43.163 47.3275 43.2781 47.3975C43.3931 47.4674 43.5095 47.5352 43.6271 47.6009C43.7447 47.6666 43.8635 47.7302 43.9834 47.7916C44.1034 47.8531 44.2244 47.9123 44.3465 47.9693C44.4686 48.0263 44.5918 48.0811 44.7159 48.1337C44.8401 48.1863 44.9652 48.2366 45.0912 48.2846C45.2172 48.3327 45.344 48.3785 45.4717 48.4219C45.5994 48.4654 45.7279 48.5065 45.8571 48.5453C45.9863 48.5841 46.1162 48.6206 46.2467 48.6547C46.3773 48.6888 46.5084 48.7205 46.6402 48.7499C46.7719 48.7793 46.9041 48.8062 47.0369 48.8308C47.1696 48.8554 47.3027 48.8775 47.4363 48.8973C47.5698 48.917 47.7037 48.9344 47.8378 48.9493C47.972 48.9642 48.1064 48.9767 48.2411 48.9868C48.3757 48.9968 48.5105 49.0044 48.6454 49.0096C48.7803 49.0147 48.9153 49.0175 49.0504 49.0178C49.1854 49.0181 49.3203 49.0159 49.4553 49.0113C49.5902 49.0067 49.7251 48.9996 49.8598 48.9902C49.9945 48.9807 50.1289 48.9688 50.2631 48.9544C50.3974 48.9401 50.5313 48.9233 50.6649 48.9042C50.7985 48.885 50.9318 48.8633 51.0646 48.8393C51.1974 48.8153 51.3297 48.7889 51.4616 48.7601C51.5935 48.7313 51.7248 48.7001 51.8555 48.6666C51.9862 48.633 52.1162 48.5971 52.2456 48.5589C52.375 48.5206 52.5036 48.48 52.6315 48.4371C52.8712 48.3553 53.1086 48.2673 53.3437 48.1731C53.5787 48.0789 53.811 47.9786 54.0407 47.8722C54.2705 47.7658 54.4972 47.6535 54.7208 47.5353C54.9445 47.4171 55.165 47.2931 55.382 47.1633C55.5991 47.0335 55.8125 46.8982 56.0224 46.7572C56.2323 46.6163 56.4382 46.4699 56.6403 46.3182C56.8423 46.1664 57.0402 46.0095 57.2339 45.8474C57.4275 45.6853 57.6167 45.5183 57.8015 45.3464C57.901 45.2588 58.0026 45.1737 58.1065 45.0912C58.2103 45.0088 58.3162 44.929 58.4242 44.8519C58.5321 44.7748 58.642 44.7004 58.7538 44.6289C58.8656 44.5573 58.9791 44.4886 59.0944 44.4228C59.2097 44.3569 59.3267 44.2941 59.4453 44.2342C59.5638 44.1743 59.6839 44.1174 59.8054 44.0635C59.9268 44.0097 60.0496 43.9589 60.1738 43.9114C60.2979 43.8637 60.4231 43.8192 60.5495 43.7779C60.6086 43.756 60.6682 43.7353 60.7282 43.7158C60.7883 43.6962 60.8487 43.678 60.9094 43.6609C60.9702 43.6439 61.0312 43.628 61.0927 43.6134C61.1541 43.5988 61.2158 43.5854 61.2778 43.5733C61.3398 43.5612 61.4021 43.5503 61.4641 43.5407C61.5267 43.531 61.5893 43.5227 61.6519 43.5156C61.7151 43.5085 61.7777 43.5027 61.8409 43.4981C61.9041 43.4935 61.9667 43.4903 62.0299 43.4883C62.0931 43.4862 62.1563 43.4855 62.2195 43.4859C62.2827 43.4865 62.3453 43.4883 62.4085 43.4913C62.4718 43.4944 62.5344 43.4987 62.5976 43.5044C62.6608 43.5099 62.7234 43.5168 62.786 43.525C62.8486 43.533 62.9112 43.5425 62.9731 43.5531C63.0351 43.5637 63.0971 43.5757 63.1591 43.5888C63.2211 43.6019 63.2824 43.6163 63.3438 43.6319C63.4046 43.6476 63.4653 43.6644 63.5261 43.6824C63.5868 43.7005 63.6464 43.7198 63.7059 43.7403C63.7654 43.7608 63.825 43.7824 63.8839 43.8054C63.9428 43.8282 64.0011 43.8523 64.0588 43.8775C64.1165 43.9027 64.1735 43.9291 64.2306 43.9566C64.2871 43.9842 64.3429 44.0128 64.3988 44.0426C64.4546 44.0724 64.5092 44.1033 64.5638 44.1353C64.6179 44.1674 64.6712 44.2004 64.7246 44.2346C64.7774 44.2687 64.8296 44.3039 64.8811 44.3402C64.9321 44.3765 64.983 44.4138 65.0327 44.4521C65.0824 44.4904 65.1321 44.5297 65.1806 44.57C65.2291 44.6103 65.2764 44.6515 65.323 44.6937C65.3696 44.7359 65.415 44.779 65.4598 44.8231C65.5046 44.8671 65.5488 44.9121 65.5918 44.9579C65.6347 45.0037 65.6765 45.0503 65.7176 45.0979C65.7587 45.1453 65.7992 45.1937 65.8379 45.2428C65.8772 45.2919 65.9152 45.3418 65.9526 45.3925C66.1189 45.5522 66.2896 45.7076 66.4645 45.8589C66.6394 46.0102 66.8173 46.1571 66.9996 46.2996C67.1819 46.4421 67.3672 46.58 67.5556 46.7133C67.7446 46.8467 67.9367 46.9753 68.1325 47.0991C68.3276 47.223 68.5259 47.3419 68.7272 47.456C68.9291 47.5701 69.1328 47.6792 69.3396 47.7832C69.5464 47.8872 69.7563 47.986 69.968 48.0797C70.1798 48.1733 70.3933 48.2618 70.61 48.3448C71.0905 47.4094 71.5336 46.4566 71.938 45.4863C72.3424 44.5161 72.707 43.5314 73.0322 42.5324C72.915 42.491 72.799 42.4461 72.6843 42.3978C72.5695 42.3494 72.4566 42.2977 72.3455 42.2426C72.2344 42.1875 72.1246 42.1292 72.0166 42.0675C71.9086 42.0059 71.803 41.9411 71.6993 41.8732C71.5956 41.8053 71.4937 41.7343 71.3937 41.6602C71.2942 41.5862 71.1973 41.5093 71.1022 41.4294C71.007 41.3496 70.915 41.267 70.8248 41.1816C70.7352 41.0963 70.648 41.0083 70.5633 40.9178L70.4701 40.9178Z" fill="url(#s48avrf0s__linear_fill_83_190)"/>
  <defs>
    <linearGradient id="s48avrf0s__linear_fill_83_190" x1="-6.74804688" y1="-22.98718262" x2="36.98486328" y2="41.68786621" gradientUnits="userSpaceOnUse">
      <stop offset="0" stop-color="#0092E4"/>
      <stop offset="1" stop-color="#62BC89"/>
    </linearGradient>
  </defs>
</svg>
