<svg xmlns="http://www.w3.org/2000/svg" fill="none" viewBox="0 0 27.73876953 22.26940918" class="design-iconfont">
  <path d="M2.68039 3.95576C3.92518 3.95576 4.96074 4.85526 5.05644 6.02157L5.06278 6.18254L5.06278 9.54359C5.06278 9.77395 4.96981 9.98339 4.81867 10.1428C4.83982 10.1385 4.86081 10.1345 4.88208 10.1308C4.90335 10.1272 4.92567 10.1235 4.94707 10.1204C4.96846 10.1174 4.98901 10.1154 5.01047 10.113C5.03192 10.1105 5.05391 10.1074 5.07546 10.1055C5.09697 10.1036 5.11887 10.101 5.14045 10.101C5.16202 10.101 5.18383 10.0981 5.20543 10.0981C5.22704 10.0981 5.24878 10.0966 5.27042 10.0966C5.29206 10.0966 5.3138 10.0966 5.33541 10.0966C5.35705 10.0966 5.37879 10.0995 5.4004 10.0995C5.42198 10.0995 5.44223 10.101 5.4638 10.1025C5.48535 10.1041 5.50728 10.1063 5.52879 10.1085C5.55031 10.1106 5.57233 10.1132 5.59378 10.1159C5.61521 10.1187 5.63586 10.1216 5.65719 10.1249C5.67852 10.1282 5.69938 10.1314 5.72059 10.1353C5.74183 10.1392 5.76449 10.1443 5.78558 10.1487C5.80666 10.1532 5.82644 10.1571 5.8474 10.1621C5.86836 10.1672 5.89 10.173 5.9108 10.1785C5.93157 10.1841 5.952 10.1903 5.97262 10.1964C5.99324 10.2026 6.01403 10.2091 6.03444 10.2158C6.05487 10.2225 6.07445 10.2294 6.09467 10.2367C6.11489 10.2439 6.13494 10.2512 6.1549 10.259C6.17487 10.2668 6.19542 10.2746 6.21514 10.2829C6.23486 10.2912 6.25431 10.2994 6.27379 10.3082C6.29326 10.3171 6.31324 10.3272 6.33243 10.3365C6.35163 10.3459 6.37058 10.355 6.3895 10.3649C6.40841 10.3748 6.4264 10.3843 6.44497 10.3947C6.46358 10.4051 6.48219 10.4166 6.50045 10.4275C6.51875 10.4383 6.53642 10.4489 6.55435 10.4602C6.57227 10.4716 6.59065 10.4842 6.60824 10.496C6.62579 10.5079 6.64333 10.5195 6.66055 10.5318C6.67776 10.5441 6.69446 10.5563 6.71127 10.5691C6.72808 10.5818 6.74397 10.5946 6.76041 10.6078L6.88087 10.7121L9.76891 13.4129L9.78793 13.4263C9.82319 13.45 9.9176 13.5292 10.0368 13.6499L10.0986 13.714C10.3387 13.9665 10.5769 14.2781 10.796 14.6545C11.3023 15.5176 11.6413 16.581 11.7487 17.8575L11.8232 17.8575C12.551 17.8575 13.1415 18.4107 13.1452 19.0946L13.1452 21.0323C13.1414 21.7166 12.5498 22.2694 11.8216 22.2694L4.38594 22.2694C3.65841 22.2694 3.06813 21.7174 3.06398 21.0338L3.06398 19.0946C3.06398 19.0745 3.06556 19.0552 3.06556 19.035C3.06556 19.0149 3.06821 18.9955 3.07032 18.9754C3.07242 18.9553 3.07509 18.9342 3.07824 18.9143C3.08141 18.8944 3.08515 18.8744 3.08934 18.8547C3.09353 18.8349 3.09837 18.8161 3.10361 18.7965C3.10884 18.777 3.11323 18.7577 3.11946 18.7384C3.12568 18.7191 3.13282 18.6992 3.14006 18.6803C3.14731 18.6613 3.15564 18.6422 3.16384 18.6236C3.17207 18.605 3.18001 18.5867 3.1892 18.5685C3.1984 18.5503 3.20919 18.5326 3.21932 18.5148C3.22944 18.4971 3.23997 18.4799 3.25102 18.4627C3.26207 18.4454 3.27239 18.4287 3.28431 18.412C3.29623 18.3953 3.30956 18.379 3.32235 18.3628C3.33517 18.3467 3.34835 18.3307 3.36198 18.3151C3.3756 18.2996 3.38876 18.2838 3.40319 18.2689C3.41761 18.254 3.43237 18.2399 3.44757 18.2257C3.68267 18 4.00142 17.8693 4.34315 17.859C4.10637 17.5695 3.78833 17.3117 3.33661 17.008L3.15591 16.8887L3.12104 16.8664L2.98948 16.7799C0.298636 15.0181 -0.511565 12.7951 0.301167 6.08715C0.369151 5.51116 0.636909 4.976 1.0525 4.58623C1.07915 4.56122 1.10701 4.53695 1.13492 4.5132C1.16285 4.48947 1.19138 4.46556 1.22052 4.44314C1.24966 4.42073 1.27903 4.4001 1.30928 4.37905C1.33956 4.35801 1.36987 4.33754 1.40122 4.31794C1.43255 4.29832 1.46557 4.27944 1.49791 4.26131C1.53023 4.24317 1.56294 4.22576 1.59619 4.20914C1.62942 4.19252 1.66197 4.17649 1.69605 4.16144C1.73012 4.14639 1.76586 4.1317 1.80066 4.11822C1.83548 4.10474 1.8698 4.0928 1.90528 4.08096C1.94078 4.06914 1.97701 4.05686 2.01306 4.04667C2.04912 4.03652 2.08432 4.02835 2.12085 4.01985C2.1574 4.01135 2.19486 4.00278 2.23181 3.996C2.26875 3.98922 2.30549 3.98321 2.34276 3.97811C2.38002 3.97305 2.41782 3.96954 2.4553 3.96619C2.49278 3.96284 2.53024 3.96034 2.56785 3.95874C2.60545 3.95713 2.64274 3.95576 2.68039 3.95576ZM25.0555 3.9483C25.6852 3.9483 26.2509 4.17326 26.685 4.57878C27.1014 4.96858 27.3659 5.50154 27.4347 6.07672C28.2525 12.7941 27.4435 15.0121 24.7401 16.7754L24.6164 16.8574C24.0422 17.2314 23.6617 17.5222 23.388 17.859L23.3468 17.8575C23.6683 17.8575 23.9693 17.9662 24.1885 18.1437C24.2204 18.1674 24.2203 18.1671 24.2455 18.1884L24.2804 18.2197C24.5272 18.4509 24.6688 18.7633 24.6688 19.0946L24.6688 21.0323C24.6688 21.2327 24.6185 21.4244 24.5245 21.5957L24.5689 21.6374L23.9919 22.1755L23.9475 22.1337C23.9244 22.1448 23.9 22.1552 23.8762 22.165C23.8524 22.1749 23.8292 22.1834 23.8049 22.1919C23.7805 22.2003 23.7552 22.2086 23.7304 22.2157C23.7055 22.2228 23.6811 22.2294 23.6559 22.2351C23.6306 22.2408 23.6054 22.2457 23.5798 22.25C23.5542 22.2543 23.5279 22.2576 23.5021 22.2604C23.4763 22.2633 23.4504 22.2679 23.4245 22.2679C23.3985 22.2679 23.3728 22.2694 23.3468 22.2694L15.9095 22.2694C15.1814 22.2694 14.5897 21.7166 14.586 21.0323L14.586 19.0946C14.586 18.7633 14.7285 18.4514 14.9712 18.2242C15.2155 17.9891 15.5511 17.8575 15.9095 17.8575L15.9825 17.8575C16.0899 16.581 16.4297 15.5176 16.9351 14.6545C17.1559 14.2781 17.394 13.9665 17.6341 13.714C17.7242 13.6177 17.8191 13.5264 17.921 13.4412L20.8408 10.7017C20.8574 10.6862 20.8743 10.672 20.8915 10.657C20.9087 10.642 20.9261 10.6267 20.9438 10.6123C20.9614 10.5978 20.978 10.583 20.9961 10.5691C21.0142 10.5551 21.033 10.5422 21.0516 10.5288C21.0702 10.5154 21.0896 10.5014 21.1086 10.4886C21.1276 10.4757 21.1463 10.4636 21.1657 10.4513C21.1851 10.439 21.2045 10.4273 21.2244 10.4155C21.2442 10.4038 21.2644 10.3924 21.2846 10.3812C21.3048 10.3701 21.3258 10.359 21.3464 10.3485C21.367 10.3379 21.3873 10.3271 21.4082 10.3172C21.4291 10.3072 21.4504 10.2982 21.4716 10.2888C21.4928 10.2795 21.5135 10.2707 21.535 10.262C21.5565 10.2533 21.5782 10.2448 21.6 10.2367C21.6218 10.2286 21.6446 10.2202 21.6666 10.2128C21.6886 10.2054 21.7109 10.1988 21.7332 10.192C21.7554 10.1852 21.7772 10.1787 21.7997 10.1726C21.8222 10.1664 21.8452 10.1602 21.8679 10.1547C21.8906 10.1492 21.9132 10.1446 21.9361 10.1398C21.9589 10.135 21.9812 10.1305 22.0042 10.1264C22.0272 10.1222 22.0508 10.1179 22.074 10.1145C22.0971 10.111 22.1205 10.1083 22.1437 10.1055C22.167 10.1027 22.1901 10.1002 22.2134 10.0981C22.2368 10.0959 22.2598 10.0921 22.2832 10.0921C22.3066 10.0921 22.3295 10.0891 22.3529 10.0891C22.3763 10.0891 22.4008 10.0876 22.4243 10.0876C22.4477 10.0876 22.4706 10.0876 22.494 10.0876C22.5174 10.0876 22.5404 10.0906 22.5638 10.0906C22.5871 10.0906 22.6117 10.0946 22.6351 10.0966C22.6584 10.0985 22.6816 10.0999 22.7048 10.1025C22.7281 10.1051 22.7514 10.1082 22.7746 10.1115C22.7978 10.1148 22.8197 10.1194 22.8427 10.1234C22.8658 10.1274 22.8896 10.1307 22.9125 10.1353C22.8962 10.118 22.8797 10.1001 22.8649 10.0817C22.8501 10.0632 22.837 10.0445 22.8237 10.025C22.8105 10.0055 22.7972 9.98581 22.7857 9.9654C22.7741 9.945 22.7638 9.924 22.754 9.9028C22.7441 9.88161 22.7351 9.86057 22.727 9.83871C22.7189 9.81685 22.7126 9.79403 22.7064 9.77164C22.7002 9.74925 22.6933 9.72733 22.689 9.70457C22.6846 9.6818 22.6819 9.65903 22.6795 9.636L22.6747 9.54359L22.6747 6.1736C22.6747 5.57633 22.9279 5.01552 23.3737 4.59816C23.4014 4.57248 23.4304 4.54803 23.4593 4.52363C23.4883 4.49924 23.5179 4.47511 23.5481 4.45209C23.5783 4.42906 23.6087 4.40665 23.64 4.38502C23.6713 4.36339 23.7027 4.34259 23.7351 4.32242C23.7675 4.30224 23.8 4.28298 23.8334 4.26429C23.8668 4.24563 23.9005 4.22775 23.9349 4.21063C23.9692 4.19348 24.0043 4.17696 24.0395 4.16144C24.0746 4.1459 24.1113 4.13064 24.1473 4.11673C24.1832 4.10284 24.2184 4.09023 24.255 4.07797C24.2917 4.06572 24.3288 4.05426 24.366 4.04369C24.4032 4.03313 24.4408 4.02422 24.4785 4.01537C24.5163 4.00653 24.5546 3.99866 24.5927 3.99153C24.6308 3.98439 24.6683 3.97754 24.7068 3.97215C24.7452 3.96676 24.7838 3.96235 24.8225 3.95874C24.8612 3.95516 24.901 3.95163 24.9398 3.94979C24.9786 3.94796 25.0167 3.9483 25.0555 3.9483ZM6.53691 0C8.02885 0.0386592 9.59628 0.298889 10.8531 0.903236C12.5466 1.7214 13.4114 3.00971 13.1864 4.77701C13.5643 4.42943 14.1691 4.43169 14.5448 4.78149C14.3206 3.01651 15.1879 1.72674 16.8796 0.906217C18.1373 0.298668 19.6904 0.0431311 21.1958 0.00447146C21.7306 -0.00973492 22.1742 0.382776 22.1817 0.818278C22.1925 0.867563 22.1949 0.918746 22.1897 0.968817L22.1897 0.97627C22.1418 2.36726 21.8624 3.81104 21.2244 4.96929C20.206 6.81237 18.5061 7.60724 16.1124 6.96505L14.8333 8.16042L14.8333 14.2953C14.8333 14.7606 14.4573 15.1505 13.9646 15.197L13.8648 15.2015C13.3692 15.2015 12.9531 14.8508 12.901 14.3877L12.8963 14.2953L12.8963 8.09633L11.8438 6.90096C9.33681 7.6568 7.5601 6.86838 6.51313 4.96929C5.87507 3.81736 5.59893 2.39593 5.5494 0.998627C5.54764 0.982636 5.54623 0.966963 5.54623 0.950931C5.54623 0.934882 5.54464 0.917815 5.54464 0.901745C5.54464 0.885676 5.54623 0.870099 5.54623 0.85405C5.54623 0.838001 5.54913 0.822327 5.55098 0.806354C5.55287 0.790381 5.55457 0.774515 5.55732 0.758658C5.56008 0.742802 5.56315 0.726662 5.56684 0.710963C5.57049 0.695281 5.57497 0.680245 5.57952 0.664758C5.58407 0.649271 5.58836 0.633807 5.59378 0.618553C5.5992 0.603319 5.60493 0.58729 5.61122 0.572347C5.6175 0.557405 5.62473 0.543737 5.63182 0.529123C5.63894 0.514509 5.64609 0.500126 5.65402 0.485899C5.66194 0.471655 5.67065 0.456494 5.67938 0.442675C5.68811 0.428856 5.69682 0.415785 5.70632 0.402432C5.71583 0.389061 5.72619 0.376526 5.73644 0.363679C5.74669 0.350812 5.75718 0.337269 5.76814 0.324926C5.77907 0.312583 5.78979 0.300916 5.80143 0.289155C5.81307 0.277374 5.8256 0.266033 5.83789 0.254873C5.85018 0.243695 5.86302 0.232621 5.87593 0.222083C5.88884 0.211525 5.90209 0.20066 5.91556 0.190782C5.92905 0.180904 5.94274 0.171662 5.95677 0.162463C5.97079 0.153264 5.98505 0.144115 5.99957 0.135634C6.01408 0.127153 6.02896 0.11953 6.04395 0.111787C6.05893 0.104043 6.07294 0.0963964 6.08833 0.0894293C6.10372 0.0824429 6.12012 0.0762632 6.13588 0.0700529C6.15164 0.0638616 6.16734 0.057582 6.18344 0.0521671C6.19953 0.0467719 6.2162 0.0418422 6.23257 0.0372622C6.24895 0.0326624 6.26509 0.0291033 6.28171 0.0253383C6.29834 0.0215732 6.31562 0.0178353 6.33243 0.0149049C6.34924 0.0119936 6.36622 0.00954861 6.38316 0.00745244C6.40009 0.00537624 6.41682 0.00298098 6.43388 0.00298098C6.45094 0.00298098 6.46751 0 6.4846 0C6.50169 0 6.51982 0 6.53691 0Z" fill="#EEFBF1"/>
</svg>
