<svg xmlns="http://www.w3.org/2000/svg" fill="none" viewBox="0 0 74.52197266 62.02514648" class="design-iconfont">
  <path d="M7.20147 11.0177C10.5457 11.0177 13.3277 13.523 13.5848 16.7714L13.6019 17.2198L13.6019 26.581C13.6019 27.2226 13.3521 27.806 12.9461 28.2499C13.0029 28.2381 13.0593 28.2268 13.1164 28.2167C13.1735 28.2065 13.2335 28.1961 13.291 28.1876C13.3485 28.1791 13.4037 28.1737 13.4613 28.1668C13.519 28.1599 13.578 28.1514 13.6359 28.1461C13.6937 28.1407 13.7526 28.1336 13.8105 28.1336C13.8685 28.1336 13.9271 28.1253 13.9851 28.1253C14.0432 28.1253 14.1016 28.1212 14.1597 28.1212C14.2178 28.1212 14.2763 28.1212 14.3343 28.1212C14.3924 28.1212 14.4508 28.1295 14.5089 28.1295C14.5669 28.1295 14.6213 28.1334 14.6792 28.1378C14.7371 28.1422 14.796 28.1484 14.8538 28.1544C14.9116 28.1604 14.9708 28.1675 15.0284 28.1751C15.086 28.1828 15.1415 28.1908 15.1988 28.2001C15.2561 28.2093 15.3121 28.2183 15.3691 28.2291C15.4262 28.2399 15.4871 28.2541 15.5437 28.2665C15.6003 28.2789 15.6535 28.2899 15.7098 28.3038C15.7661 28.3179 15.8242 28.3339 15.8801 28.3495C15.9359 28.3651 15.9908 28.3822 16.0462 28.3993C16.1016 28.4164 16.1575 28.4346 16.2123 28.4533C16.2672 28.4719 16.3198 28.4912 16.3741 28.5114C16.4284 28.5316 16.4823 28.5519 16.5359 28.5737C16.5896 28.5953 16.6447 28.617 16.6977 28.6401C16.7507 28.6633 16.803 28.686 16.8553 28.7107C16.9076 28.7353 16.9613 28.7634 17.0128 28.7895C17.0644 28.8156 17.1153 28.8409 17.1662 28.8684C17.217 28.896 17.2653 28.9225 17.3152 28.9514C17.3652 28.9804 17.4152 29.0124 17.4642 29.0428C17.5134 29.0731 17.5609 29.1024 17.609 29.1341C17.6572 29.1657 17.7066 29.2007 17.7538 29.2337C17.801 29.2667 17.8481 29.2991 17.8943 29.3334C17.9406 29.3677 17.9854 29.4016 18.0306 29.4372C18.0758 29.4727 18.1185 29.5083 18.1626 29.5451L18.4863 29.8357L26.2451 37.3579L26.2962 37.3953C26.3909 37.4613 26.6445 37.6817 26.9648 38.018L27.1308 38.1965C27.7759 38.8997 28.4158 39.7678 29.0045 40.816C30.3647 43.22 31.2752 46.1816 31.5638 49.7372L31.764 49.7372C33.7194 49.7372 35.3056 51.2778 35.3155 53.1828L35.3155 58.5796C35.3055 60.4854 33.7159 62.0252 31.7597 62.0252L11.7835 62.0252C9.82897 62.0252 8.24315 60.4879 8.232 58.5837L8.232 53.1828C8.232 53.1267 8.23626 53.0729 8.23626 53.0168C8.23626 52.9607 8.24338 52.9066 8.24903 52.8507C8.25469 52.7948 8.26184 52.736 8.27033 52.6805C8.27882 52.625 8.28888 52.5695 8.30014 52.5145C8.3114 52.4594 8.32441 52.407 8.33846 52.3525C8.35252 52.2981 8.36433 52.2444 8.38105 52.1906C8.39776 52.137 8.41694 52.0815 8.43641 52.0287C8.45587 51.9759 8.47824 51.9228 8.50028 51.871C8.5224 51.8192 8.54371 51.7681 8.56842 51.7174C8.59312 51.6667 8.62213 51.6174 8.64933 51.5679C8.67652 51.5184 8.7048 51.4707 8.73449 51.4226C8.76419 51.3746 8.7919 51.3281 8.82392 51.2815C8.85594 51.2349 8.89177 51.1895 8.92612 51.1445C8.96056 51.0995 8.99599 51.055 9.03258 51.0117C9.06918 50.9684 9.10454 50.9245 9.1433 50.883C9.18206 50.8415 9.2217 50.8022 9.26254 50.7626C9.89415 50.1341 10.7505 49.77 11.6685 49.7414C11.0324 48.9349 10.178 48.2169 8.96445 47.3709L8.47899 47.0388L8.3853 46.9766L8.03186 46.7358C0.802787 41.8288 -1.37385 35.6371 0.809587 16.9541C0.992229 15.3498 1.71157 13.8593 2.82807 12.7737C2.89967 12.704 2.97451 12.6364 3.04951 12.5703C3.12453 12.5042 3.20118 12.4376 3.27947 12.3751C3.35776 12.3127 3.43665 12.2553 3.51794 12.1966C3.59928 12.138 3.68071 12.081 3.76493 12.0264C3.8491 11.9718 3.93781 11.9192 4.02469 11.8687C4.11152 11.8182 4.19938 11.7697 4.28871 11.7234C4.37799 11.6771 4.46545 11.6325 4.55699 11.5905C4.64854 11.5486 4.74456 11.5077 4.83805 11.4702C4.93159 11.4326 5.02379 11.3994 5.1191 11.3664C5.21447 11.3334 5.3118 11.2993 5.40867 11.2709C5.50554 11.2426 5.60009 11.2198 5.69825 11.1962C5.79644 11.1725 5.89708 11.1486 5.99633 11.1297C6.09559 11.1109 6.19428 11.0941 6.29442 11.0799C6.39451 11.0658 6.49607 11.056 6.59677 11.0467C6.69746 11.0374 6.79809 11.0304 6.89912 11.026C7.00014 11.0215 7.10033 11.0177 7.20147 11.0177ZM67.3132 10.9969C69.005 10.9969 70.5247 11.6235 71.6909 12.7529C72.8096 13.8386 73.5202 15.323 73.7051 16.925C75.9021 35.6344 73.7287 41.8119 66.4658 46.7233L66.1337 46.9517C64.5908 47.9933 63.5686 48.8031 62.8334 49.7414L62.7227 49.7372C63.5865 49.7372 64.3952 50.0398 64.9839 50.5343C65.0695 50.6002 65.0695 50.5994 65.1372 50.6588L65.2309 50.746C65.8939 51.3898 66.2742 52.2599 66.2742 53.1828L66.2742 58.5796C66.2742 59.1377 66.1393 59.6718 65.8867 60.1488L66.0059 60.265L64.4558 61.7636L64.3366 61.6474C64.2745 61.6783 64.2088 61.7073 64.145 61.7346C64.081 61.7619 64.0188 61.7857 63.9533 61.8093C63.8879 61.8329 63.82 61.8559 63.7532 61.8757C63.6864 61.8955 63.6209 61.9138 63.553 61.9297C63.4853 61.9456 63.4173 61.9593 63.3486 61.9712C63.2799 61.9832 63.2093 61.9922 63.14 62.0003C63.0707 62.0083 63.0009 62.021 62.9313 62.021C62.8616 62.021 62.7924 62.0252 62.7227 62.0252L42.7422 62.0252C40.786 62.0252 39.1964 60.4854 39.1864 58.5796L39.1864 53.1828C39.1864 52.2599 39.5693 51.3913 40.2212 50.7584C40.8776 50.1035 41.7791 49.7372 42.7422 49.7372L42.9381 49.7372C43.2268 46.1816 44.1395 43.22 45.4974 40.816C46.0906 39.7678 46.7303 38.8997 47.3753 38.1965C47.6172 37.9282 47.8722 37.6739 48.1461 37.4368L55.9901 29.8066C56.0349 29.7636 56.0802 29.7238 56.1264 29.6821C56.1725 29.6403 56.2194 29.5978 56.2669 29.5575C56.3143 29.5172 56.3587 29.476 56.4074 29.4372C56.4562 29.3983 56.5066 29.3624 56.5565 29.3251C56.6064 29.2877 56.6586 29.2488 56.7098 29.213C56.7608 29.1771 56.8109 29.1435 56.8631 29.1092C56.9152 29.0749 56.9673 29.0422 57.0206 29.0096C57.0739 28.9769 57.1282 28.9451 57.1825 28.9141C57.2368 28.883 57.2932 28.8522 57.3485 28.8228C57.4038 28.7933 57.4585 28.7633 57.5146 28.7356C57.5708 28.7079 57.628 28.6827 57.685 28.6567C57.7419 28.6307 57.7975 28.6062 57.8553 28.582C57.9131 28.5577 57.9713 28.5339 58.0299 28.5114C58.0884 28.4889 58.1495 28.4657 58.2087 28.445C58.268 28.4242 58.3277 28.4058 58.3876 28.3869C58.4474 28.368 58.506 28.35 58.5664 28.3329C58.6269 28.3158 58.6886 28.2984 58.7496 28.2831C58.8105 28.2678 58.8713 28.255 58.9327 28.2416C58.9941 28.2281 59.054 28.2158 59.1158 28.2042C59.1776 28.1926 59.241 28.1807 59.3032 28.171C59.3653 28.1613 59.4281 28.1539 59.4905 28.1461C59.553 28.1382 59.6153 28.1312 59.6779 28.1253C59.7405 28.1194 59.8025 28.1087 59.8653 28.1087C59.9281 28.1087 59.9898 28.1004 60.0526 28.1004C60.1155 28.1004 60.1813 28.0963 60.2443 28.0963C60.3072 28.0963 60.3688 28.0963 60.4316 28.0963C60.4946 28.0963 60.5562 28.1046 60.619 28.1046C60.6818 28.1046 60.7479 28.1157 60.8106 28.1212C60.8733 28.1266 60.9355 28.1304 60.998 28.1378C61.0605 28.1451 61.1232 28.1534 61.1854 28.1627C61.2477 28.1719 61.3066 28.1848 61.3685 28.1959C61.4304 28.207 61.4943 28.2161 61.5559 28.2291C61.512 28.1809 61.4679 28.1311 61.4281 28.0797C61.3883 28.0282 61.353 27.9762 61.3174 27.9219C61.2819 27.8676 61.2463 27.8127 61.2152 27.7559C61.184 27.699 61.1565 27.6405 61.13 27.5815C61.1035 27.5225 61.0792 27.4639 61.0576 27.403C61.0359 27.3421 61.019 27.2785 61.0023 27.2162C60.9855 27.1538 60.9671 27.0928 60.9554 27.0294C60.9438 26.966 60.9364 26.9025 60.9299 26.8384L60.9171 26.581L60.9171 17.1949C60.9171 15.5313 61.5974 13.9693 62.7951 12.8069C62.8693 12.7354 62.9472 12.6673 63.025 12.5993C63.1028 12.5314 63.1824 12.4642 63.2635 12.4001C63.3446 12.3359 63.4263 12.2735 63.5105 12.2132C63.5946 12.153 63.6789 12.0951 63.766 12.0389C63.8531 11.9827 63.9402 11.929 64.03 11.877C64.1197 11.825 64.2103 11.7752 64.3025 11.7275C64.3948 11.6798 64.489 11.6338 64.5836 11.5905C64.6781 11.5472 64.7766 11.5048 64.8732 11.466C64.9697 11.4273 65.0643 11.3922 65.1627 11.3581C65.2611 11.3239 65.3608 11.292 65.4608 11.2626C65.5608 11.2332 65.6619 11.2084 65.7632 11.1837C65.8645 11.1591 65.9674 11.1372 66.0698 11.1173C66.1722 11.0974 66.2731 11.0783 66.3764 11.0633C66.4796 11.0483 66.5834 11.036 66.6872 11.026C66.7911 11.016 66.8981 11.0062 67.0024 11.001C67.1067 10.9959 67.2088 10.9969 67.3132 10.9969ZM17.5622 0C21.5703 0.107675 25.7813 0.832473 29.1578 2.51571C33.7074 4.79449 36.0307 8.38271 35.4262 13.305C36.4416 12.3369 38.0665 12.3432 39.0757 13.3175C38.4734 8.40165 40.8034 4.80936 45.3483 2.52401C48.7272 0.831857 52.8997 0.12013 56.944 0.012454C58.3808 -0.0271139 59.5724 1.06612 59.5927 2.27909C59.6217 2.41636 59.6281 2.55891 59.614 2.69837L59.614 2.71913C59.4855 6.59333 58.7349 10.6146 57.0206 13.8406C54.2847 18.974 49.7179 21.1879 43.2873 19.3992L39.8507 22.7286L39.8507 39.8155C39.8507 41.1114 38.8406 42.1975 37.5171 42.3271L37.2488 42.3395C35.9174 42.3395 34.7996 41.3629 34.6597 40.0729L34.6469 39.8155L34.6469 22.5501L31.8194 19.2207C25.0842 21.3259 20.311 19.13 17.4983 13.8406C15.7841 10.6322 15.0423 6.6732 14.9092 2.7814C14.9045 2.73686 14.9007 2.69321 14.9007 2.64855C14.9007 2.60385 14.8964 2.55632 14.8964 2.51156C14.8964 2.4668 14.9007 2.42342 14.9007 2.37872C14.9007 2.33402 14.9085 2.29036 14.9135 2.24587C14.9185 2.20139 14.9231 2.1572 14.9305 2.11303C14.9379 2.06887 14.9461 2.02392 14.956 1.98019C14.9658 1.93651 14.9779 1.89463 14.9901 1.8515C15.0023 1.80836 15.0139 1.76529 15.0284 1.72281C15.043 1.68038 15.0584 1.63573 15.0753 1.59411C15.0922 1.5525 15.1116 1.51443 15.1306 1.47373C15.1498 1.43302 15.169 1.39296 15.1902 1.35334C15.2115 1.31366 15.2349 1.27144 15.2584 1.23295C15.2818 1.19446 15.3052 1.15805 15.3308 1.12086C15.3563 1.08362 15.3842 1.04871 15.4117 1.01293C15.4392 0.977089 15.4674 0.93937 15.4969 0.904992C15.5262 0.870614 15.555 0.838117 15.5863 0.80536C15.6176 0.772549 15.6512 0.740961 15.6842 0.709879C15.7172 0.678744 15.7517 0.647901 15.7864 0.61855C15.8211 0.589144 15.8567 0.558884 15.8929 0.531372C15.9291 0.503858 15.9659 0.478117 16.0036 0.452496C16.0413 0.426874 16.0796 0.401392 16.1186 0.377772C16.1576 0.35415 16.1976 0.332918 16.2378 0.31135C16.2781 0.289784 16.3157 0.268485 16.3571 0.24908C16.3984 0.229622 16.4425 0.21241 16.4848 0.195113C16.5271 0.177869 16.5693 0.160379 16.6126 0.145297C16.6558 0.13027 16.7006 0.11654 16.7446 0.103784C16.7886 0.0909719 16.8319 0.0810592 16.8766 0.0705728C16.9212 0.0600863 16.9677 0.0496752 17.0128 0.0415134C17.058 0.0334048 17.1036 0.026595 17.1491 0.0207567C17.1946 0.014974 17.2396 0.00830268 17.2854 0.00830268C17.3312 0.00830268 17.3757 0 17.4217 0C17.4676 0 17.5163 0 17.5622 0Z" fill="url(#jmjt3ex83__linear_fill_83_204)"/>
  <defs>
    <linearGradient id="jmjt3ex83__linear_fill_83_204" x1="8.86572266" y1="0" x2="56.79248047" y2="62.02526855" gradientUnits="userSpaceOnUse">
      <stop offset="0" stop-color="#DC8A5A"/>
      <stop offset="1" stop-color="#E6BE44"/>
    </linearGradient>
  </defs>
</svg>
