<svg xmlns="http://www.w3.org/2000/svg" fill="none" viewBox="0 0 27.73925781 25.76391602" class="design-iconfont">
  <path d="M20.8043 0.00037932C21.2992 -0.0444242 24.9756 3.8913 26.1905 5.68224C27.1587 6.85538 27.7391 8.35104 27.7391 9.98003C27.7391 13.7481 24.6344 16.8026 20.8043 16.8026C16.9743 16.8026 13.8695 13.7481 13.8695 9.98003C13.8695 8.25556 14.5199 6.68052 15.5924 5.47933C16.9726 3.62564 20.5065 0.0173954 20.8043 0.00037932ZM4.62318 4.48095C4.95316 4.45107 7.40406 7.07488 8.21397 8.26885C8.8595 9.05094 9.24636 10.048 9.24636 11.134C9.24636 13.6461 7.17653 15.6824 4.62318 15.6824C2.06987 15.6824 0 13.6461 0 11.134C0 9.9844 0.433546 8.93437 1.14856 8.13357C2.06875 6.89779 4.42461 4.49228 4.62318 4.48095ZM16.5229 10.3856C16.929 11.9731 18.0536 13.0705 19.8964 13.6775C19.9763 13.7019 20.0515 13.7453 20.1148 13.8076C20.3231 14.0126 20.323 14.3448 20.1148 14.5498C19.964 14.698 19.7457 14.739 19.5576 14.6728C18.5821 14.3514 17.7673 13.9012 17.1134 13.3221C16.3037 12.6053 15.762 11.7119 15.4883 10.6419C15.4403 10.4665 15.4861 10.2714 15.6261 10.1337C15.8344 9.9288 16.1722 9.9288 16.3805 10.1337C16.4537 10.2057 16.501 10.2933 16.5229 10.3856ZM1.76889 11.4044C2.03969 12.4628 2.78936 13.1943 4.0179 13.599C4.07116 13.6154 4.12131 13.6443 4.16348 13.6857C4.30238 13.8224 4.30236 14.0438 4.16348 14.1805C4.06303 14.2794 3.91743 14.3067 3.79199 14.2626C3.1417 14.0483 2.59856 13.7482 2.16256 13.3621C1.62281 12.8842 1.26168 12.2886 1.07917 11.5753C1.04714 11.4584 1.07777 11.3283 1.17105 11.2366C1.30993 11.0999 1.5351 11.0999 1.67398 11.2366C1.72271 11.2845 1.75436 11.3429 1.76889 11.4044ZM14.122 19.0918C13.4133 18.0172 11.2688 15.6558 10.98 15.6826C10.8063 15.6928 8.74492 17.8578 7.93975 18.97C7.31412 19.6907 6.93477 20.6357 6.93477 21.6704C6.93477 23.9312 8.7459 25.764 10.98 25.764C13.2142 25.764 15.0253 23.9312 15.0253 21.6704C15.0253 20.6931 14.6868 19.7957 14.122 19.0918ZM10.4504 23.8889C9.37546 23.5247 8.71949 22.8663 8.48254 21.9137C8.46983 21.8584 8.44214 21.8058 8.39951 21.7627C8.27799 21.6397 8.08096 21.6397 7.95944 21.7627C7.87782 21.8453 7.85101 21.9623 7.87904 22.0676C8.03874 22.7096 8.35473 23.2456 8.82701 23.6757C9.20851 24.0232 9.68376 24.2933 10.2528 24.4861C10.3625 24.5258 10.4899 24.5012 10.5778 24.4123C10.6993 24.2893 10.6993 24.09 10.5778 23.967C10.5409 23.9296 10.497 23.9036 10.4504 23.8889Z" fill-rule="evenodd" fill="#EEFBF1"/>
</svg>
