<svg fill="none" xmlns="http://www.w3.org/2000/svg" viewBox="0 0 94 89" class="design-iconfont">
  <path d="M46.3166 1.49985L90.8834 12.5667V55.0667H1.74991V12.5667L46.3166 1.49985Z" fill="url(#xubwcios7__paint0_linear_103_14)"/>
  <path d="M46.3166 33.4999L90.8834 44.5667V87.0667H1.74991V44.5667L46.3166 33.4999Z" fill="url(#xubwcios7__paint1_linear_103_14)"/>
  <path d="M46.0664 60.4182L3.54263 50.5277L46.0664 38.9509L88.5902 50.5277L46.0664 60.4182Z" fill="#366E51" stroke="#89C69D"/>
  <path d="M46.0667 53.9851L3.54288 44.0946L46.0667 32.5178L88.5904 44.0946L46.0667 53.9851Z" fill="#468956" stroke="#89C69D"/>
  <g clip-path="url(#xubwcios7__clip0_103_14)" filter="url(#xubwcios7__filter0_d_103_14)">
    <path d="M37.0029 7.00014C37.6674 7.00014 38 7.24545 38 7.73549V12.0646L40.2969 12.0861C40.5173 11.3603 40.912 10.6956 41.4531 10.1544C42.1534 9.45422 43.0599 8.99665 44.0391 8.84877V7.72963C44.0371 7.63378 44.0542 7.53836 44.0898 7.44936C44.1255 7.36034 44.1785 7.27911 44.2461 7.21108C44.3137 7.14301 44.3946 7.08912 44.4834 7.05287C44.5722 7.01664 44.6678 6.99881 44.7637 7.00014C44.8606 6.99823 44.9568 7.01616 45.0469 7.0519C45.1371 7.08769 45.2198 7.14117 45.2891 7.20912C45.3582 7.27702 45.4136 7.35803 45.4512 7.4474C45.4886 7.53674 45.5078 7.63275 45.5078 7.72963V8.84389C46.4773 9.00341 47.3712 9.46608 48.0615 10.1652C48.5738 10.6839 48.9543 11.3131 49.1768 12.0001H56.7393V7.73451C56.7394 7.31627 57.2834 7.07768 57.7471 7.01674C58.2341 7.01908 58.7138 7.24746 58.7139 7.73451V12.0001H62.2695C62.3656 11.9991 62.4609 12.0303 62.5498 12.091C62.6386 12.1516 62.7192 12.2408 62.7871 12.3537C62.855 12.4665 62.9088 12.6005 62.9453 12.7482C62.9818 12.8959 63.0006 13.0544 63 13.214C63.0006 13.3745 62.9826 13.5341 62.9463 13.6828C62.9099 13.8314 62.8559 13.967 62.7881 14.0812C62.7203 14.1953 62.6397 14.2864 62.5508 14.3488C62.4619 14.4111 62.366 14.4434 62.2695 14.4445H58.7139V23.2413C58.7139 23.3607 58.699 23.4655 58.6699 23.5558H62.2695C62.366 23.5569 62.4619 23.5892 62.5508 23.6515C62.6397 23.7139 62.7203 23.805 62.7881 23.9191C62.8559 24.0333 62.9099 24.1688 62.9463 24.3175C62.9826 24.4662 63.0006 24.6258 63 24.7863C63.0006 24.9459 62.9818 25.1044 62.9453 25.2521C62.9088 25.3997 62.855 25.5338 62.7871 25.6466C62.7192 25.7596 62.6387 25.8497 62.5498 25.9103C62.461 25.9708 62.3655 26.0012 62.2695 26.0001H45.5078V33.0001H48.2686C48.7562 33.0002 49 33.3328 49 33.9972V34.0031C49 34.6675 48.7562 35.0001 48.2686 35.0001H45.5078V39.2365C45.5065 39.433 45.4275 39.6214 45.2881 39.7599C45.1487 39.8983 44.9601 39.9757 44.7637 39.9757C44.5699 39.9732 44.3848 39.8943 44.249 39.756C44.1132 39.6175 44.0378 39.4304 44.0391 39.2365V35.0001H38V39.2648C38 39.7548 37.6674 40.0001 37.0029 40.0001H36.9971C36.3326 40.0001 36 39.7548 36 39.2648V35.0001H30.7314C30.2438 35.0001 30 34.6675 30 34.0031V33.9972C30 33.3328 30.2438 33.0002 30.7314 33.0001H36V26.0001H30.7451C30.6482 26.0023 30.5519 25.9722 30.4619 25.9122C30.3719 25.8523 30.2899 25.7634 30.2207 25.6505C30.1515 25.5377 30.0964 25.4034 30.0586 25.255C30.0208 25.1067 30.0007 24.9474 30 24.7863C30.0013 24.4592 30.0802 24.1457 30.2197 23.9152C30.3593 23.6848 30.5485 23.5558 30.7451 23.5558H36V14.4445H30.7451C30.5485 14.4445 30.3593 14.3155 30.2197 14.0851C30.0802 13.8546 30.0013 13.541 30 13.214C30.0007 13.0529 30.0208 12.8936 30.0586 12.7453C30.0964 12.5969 30.1515 12.4626 30.2207 12.3497C30.2899 12.2369 30.3719 12.148 30.4619 12.088C30.5519 12.0281 30.6482 11.998 30.7451 12.0001L36 12.047V7.73549C36 7.24545 36.3326 7.00014 36.9971 7.00014H37.0029ZM57.7393 27.5001C60.7768 27.5001 63.2393 29.9626 63.2393 33.0001C63.2393 36.0377 60.7768 38.5001 57.7393 38.5001C54.7018 38.5 52.2393 36.0376 52.2393 33.0001C52.2393 29.9627 54.7018 27.5003 57.7393 27.5001ZM57.7393 30.5001C56.3587 30.5003 55.2393 31.6195 55.2393 33.0001C55.2393 34.3808 56.3587 35.5 57.7393 35.5001C59.12 35.5001 60.2393 34.3808 60.2393 33.0001C60.2393 31.6194 59.12 30.5001 57.7393 30.5001ZM38 33.0001H44.0391V26.0001H38V33.0001ZM38 23.5558H44.0391V18.1007C43.0599 17.9528 42.1534 17.4953 41.4531 16.7951C40.8094 16.1514 40.3739 15.3329 40.1924 14.4445H38V23.5558ZM49.3018 14.4445C49.1202 15.3169 48.6932 16.1212 48.0645 16.758C47.3737 17.4574 46.4782 17.9189 45.5078 18.0763V23.5558H56.8232C56.7702 23.4655 56.7393 23.3608 56.7393 23.2413V14.4445H49.3018ZM43.5 14.5001H46.5V12.0001H43.5V14.5001ZM57.7471 7.01674C57.7445 7.01673 57.7418 7.01674 57.7393 7.01674L57.7588 7.01479C57.7549 7.01528 57.751 7.01622 57.7471 7.01674Z" fill="url(#xubwcios7__paint2_linear_103_14)"/>
  </g>
  <defs>
    <linearGradient id="xubwcios7__paint0_linear_103_14" x1="45.75" y1="-1.9331" x2="45.75" y2="62.0669" gradientUnits="userSpaceOnUse">
      <stop stop-opacity="0"/>
      <stop offset="1" stop-color="#6BA886"/>
    </linearGradient>
    <linearGradient id="xubwcios7__paint1_linear_103_14" x1="45.75" y1="30.0669" x2="45.75" y2="94.0669" gradientUnits="userSpaceOnUse">
      <stop stop-color="#6BA886"/>
      <stop offset="1" stop-color="#295556"/>
    </linearGradient>
    <linearGradient id="xubwcios7__paint2_linear_103_14" x1="46.6196" y1="7" x2="46.6196" y2="40.0001" gradientUnits="userSpaceOnUse">
      <stop stop-color="#D1F7E2"/>
      <stop offset="1" stop-color="#F6FFFD"/>
    </linearGradient>
    <clipPath id="xubwcios7__clip0_103_14">
      <path fill="#fff" transform="translate(30 7)" d="M0 0H33V33H0z"/>
    </clipPath>
    <filter id="xubwcios7__filter0_d_103_14" x="26" y="-4" width="41" height="44" filterUnits="userSpaceOnUse" color-interpolation-filters="sRGB">
      <feFlood flood-opacity="0" result="BackgroundImageFix"/>
      <feColorMatrix in="SourceAlpha" values="0 0 0 0 0 0 0 0 0 0 0 0 0 0 0 0 0 0 127 0" result="hardAlpha"/>
      <feOffset dy="-7"/>
      <feGaussianBlur stdDeviation="2"/>
      <feComposite in2="hardAlpha" operator="out"/>
      <feColorMatrix values="0 0 0 0 0.231373 0 0 0 0 0.309804 0 0 0 0 0.278431 0 0 0 1 0"/>
      <feBlend in2="BackgroundImageFix" result="effect1_dropShadow_103_14"/>
      <feBlend in="SourceGraphic" in2="effect1_dropShadow_103_14" result="shape"/>
    </filter>
  </defs>
</svg>
