<svg fill="none" xmlns="http://www.w3.org/2000/svg" viewBox="0 0 20 20" class="design-iconfont">
  <g clip-path="url(#56qrslzgm__clip0_88_286)" fill-rule="evenodd" clip-rule="evenodd">
    <path d="M2.17358 8.26099V20H9.99992V19.9303V11.6087V8.26099L10 6.5L6 2L2.17358 6.5V8.26099ZM6.95625 17.8263H7.39125C7.63125 17.8263 7.82592 17.6317 7.82592 17.3913V16.9563C7.82592 16.716 7.63125 16.5217 7.39125 16.5217H6.95625C6.71625 16.5217 6.52158 16.716 6.52158 16.9563V17.3913C6.52158 17.6317 6.71625 17.8263 6.95625 17.8263ZM6.95625 15.2173H7.39125C7.63125 15.2173 7.82592 15.0227 7.82592 14.7823V14.3477C7.82592 14.107 7.63125 13.9127 7.39125 13.9127H6.95625C6.71625 13.9127 6.52158 14.107 6.52158 14.3477V14.7823C6.52158 15.0227 6.71625 15.2173 6.95625 15.2173ZM6.95625 12.6087H7.39125C7.63125 12.6087 7.82592 12.4143 7.82592 12.1737V11.739C7.82592 11.4987 7.63125 11.304 7.39125 11.304H6.95625C6.71625 11.304 6.52158 11.4987 6.52158 11.739V12.1737C6.52158 12.4143 6.71625 12.6087 6.95625 12.6087ZM6.95625 9.99999H7.39125C7.63125 9.99999 7.82592 9.80532 7.82592 9.56532V9.13032C7.82592 8.89032 7.63125 8.69565 7.39125 8.69565H6.95625C6.71625 8.69565 6.52158 8.89032 6.52158 9.13032V9.56532C6.52158 9.80532 6.71625 9.99999 6.95625 9.99999ZM4.78225 17.8263H5.21725C5.45725 17.8263 5.65192 17.6317 5.65192 17.3913V16.9563C5.65192 16.716 5.45725 16.5217 5.21725 16.5217H4.78225C4.54192 16.5217 4.34725 16.716 4.34725 16.9563V17.3913C4.34725 17.6317 4.54192 17.8263 4.78225 17.8263ZM4.78225 15.2173H5.21725C5.45725 15.2173 5.65192 15.0227 5.65192 14.7823V14.3477C5.65192 14.107 5.45725 13.9127 5.21725 13.9127H4.78225C4.54192 13.9127 4.34725 14.107 4.34725 14.3477V14.7823C4.34725 15.0227 4.54192 15.2173 4.78225 15.2173ZM4.78225 12.6087H5.21725C5.45725 12.6087 5.65192 12.4143 5.65192 12.1737V11.739C5.65192 11.4987 5.45725 11.304 5.21725 11.304H4.78225C4.54192 11.304 4.34725 11.4987 4.34725 11.739V12.1737C4.34725 12.4143 4.54192 12.6087 4.78225 12.6087ZM4.78225 9.99999H5.21725C5.45725 9.99999 5.65192 9.80532 5.65192 9.56532V9.13032C5.65192 8.89032 5.45725 8.69565 5.21725 8.69565H4.78225C4.54192 8.69565 4.34725 8.89032 4.34725 9.13032V9.56532C4.34725 9.80532 4.54192 9.99999 4.78225 9.99999Z" fill="url(#56qrslzgm__paint0_linear_88_286)"/>
    <path d="M17.9562 19.9307H12.9129L9.99992 19.9303V11.6087H12.9129V8.99999H17.9562V19.9307ZM15.2172 11.3043H15.6519C15.8926 11.3043 16.0869 11.499 16.0869 11.7393V12.174C16.0869 12.4147 15.8926 12.609 15.6519 12.609H15.2172C14.9769 12.609 14.7823 12.4147 14.7823 12.174V11.7393C14.7826 11.499 14.9773 11.3043 15.2172 11.3043ZM15.2172 13.913H15.6519C15.8926 13.913 16.0869 14.1073 16.0869 14.348V14.7827C16.0869 15.023 15.8926 15.2177 15.6519 15.2177H15.2172C14.9769 15.2177 14.7823 15.023 14.7823 14.7827V14.348C14.7826 14.1073 14.9773 13.913 15.2172 13.913ZM15.2172 16.5217H15.6519C15.8926 16.5217 16.0869 16.716 16.0869 16.9563V17.3913C16.0869 17.6317 15.8926 17.8263 15.6519 17.8263H15.2172C14.9769 17.8263 14.7823 17.6317 14.7823 17.3913V16.9563C14.7826 16.716 14.9773 16.5217 15.2172 16.5217ZM11.3043 13.913H11.7389C11.9793 13.913 12.1739 14.1073 12.1739 14.348V14.7827C12.1739 15.023 11.9793 15.2177 11.7389 15.2177H11.3043C11.0639 15.2177 10.8693 15.023 10.8693 14.7827V14.348C10.8693 14.1073 11.0639 13.913 11.3043 13.913ZM11.3043 16.5217H11.7389C11.9793 16.5217 12.1739 16.716 12.1739 16.9563V17.3913C12.1739 17.6317 11.9793 17.8263 11.7389 17.8263H11.3043C11.0639 17.8263 10.8693 17.6317 10.8693 17.3913V16.9563C10.8693 16.716 11.0639 16.5217 11.3043 16.5217Z" fill="url(#56qrslzgm__paint1_linear_88_286)"/>
  </g>
  <defs>
    <linearGradient id="56qrslzgm__paint0_linear_88_286" x1="10.0649" y1="2" x2="10.0649" y2="20" gradientUnits="userSpaceOnUse">
      <stop stop-color="#75D3A1"/>
      <stop offset="1" stop-color="#8CD3D5"/>
    </linearGradient>
    <linearGradient id="56qrslzgm__paint1_linear_88_286" x1="10.0649" y1="2" x2="10.0649" y2="20" gradientUnits="userSpaceOnUse">
      <stop stop-color="#75D3A1"/>
      <stop offset="1" stop-color="#8CD3D5"/>
    </linearGradient>
    <clipPath id="56qrslzgm__clip0_88_286">
      <path fill="#fff" d="M0 0H20V20H0z"/>
    </clipPath>
  </defs>
</svg>
